<svg version="1" xmlns="http://www.w3.org/2000/svg" width="346.667" height="346.667" viewBox="0 0 260.000000 260.000000"><path d="M141.7 56c-3.7 1.1-7.7 4.2-17.9 13.9-4.6 4.3-9.7 8.6-11.5 9.5-4.3 2.2-9.9 2-13.7-.4l-3.2-1.9-5.3 5.3-5.3 5.3 2.1 3.9c4.3 7.9 2.8 11.5-10.6 25.7-13.5 14.3-15.9 20.8-11.2 30 2.6 4.9 9.8 13.7 11.3 13.7.6 0 3.4-2.3 6.2-5.1l5.2-5.1-3.4-4.5c-1.9-2.4-3.4-5.3-3.4-6.4 0-1 4-6.3 8.9-11.8 12.1-13.5 14.5-17.7 14.5-25.6v-6.1l5.2.4c7.3.6 12.3-2 24.2-12.7 5.3-4.8 10.6-9.2 11.7-9.8 2.4-1.4 6-.1 9.8 3.5l2.8 2.6 5.7-5.8 5.7-5.7-5-4.6c-5.5-5.1-13.6-9.3-17.5-9.2-1.4 0-3.8.5-5.3.9zM195.2 107.4l-5.1 5.4 2 1.8c2.4 2.2 4.9 6.6 4.9 8.8 0 .9-3.9 5.9-8.7 11.1-11.7 12.8-14.5 17.7-14.5 25.5v6h-5.4c-7.7 0-12.5 2.7-24.7 13.6-7.2 6.3-11.4 9.4-13 9.4-1.3 0-4.3-1.4-6.6-3l-4.1-3-5.7 5.6-5.8 5.7 5.5 4.8c6.4 5.7 10.8 8 16.5 8.7 6 .6 11-2.3 22.5-13.2 5.4-5.1 11.4-10 13.3-10.9 4.8-2.3 9.9-2.1 13.1.4l2.7 2.1 2.7-2.3c1.4-1.3 4.1-3.9 5.9-5.8l3.2-3.4-2.2-2.9c-2.5-3.4-2.7-9-.4-13.3.9-1.7 6.1-7.9 11.6-13.8 13.2-14.2 15.1-20.1 9.9-30.2-2.2-4.1-9.7-12.5-11.2-12.5-.7 0-3.6 2.4-6.4 5.4z"/></svg>