<?xml version="1.0" standalone="no"?>
<!DOCTYPE svg PUBLIC "-//W3C//DTD SVG 20010904//EN"
 "http://www.w3.org/TR/2001/REC-SVG-20010904/DTD/svg10.dtd">
<svg version="1.0" xmlns="http://www.w3.org/2000/svg"
 width="720.000000pt" height="720.000000pt" viewBox="0 0 720.000000 720.000000"
 preserveAspectRatio="xMidYMid meet">
<metadata>
Created by potrace 1.14, written by Peter Selinger 2001-2017
</metadata>
<g transform="translate(0.000000,720.000000) scale(0.100000,-0.100000)"
fill="#000000" stroke="none">
<path d="M3681 7093 c0 -16 -2 -54 -3 -86 -2 -31 -1 -57 2 -57 3 0 3 -30 0
-67 -3 -38 -3 -101 0 -141 3 -39 2 -72 -1 -72 -4 0 -3 -18 1 -40 4 -22 4 -40
0 -40 -4 0 -6 -12 -4 -27 4 -33 4 -62 4 -163 l-1 -75 -224 0 c-124 0 -226 2
-227 5 0 3 -2 95 -3 205 l-1 200 -1375 0 -1374 0 0 -1402 c-1 -966 2 -1404 10
-1406 5 -2 81 -3 168 -3 87 1 161 -2 163 -6 4 -5 7 -268 5 -328 -1 -13 -53
-15 -411 -15 l-410 1 2 -1406 3 -1405 1370 0 1370 0 3 363 2 362 267 -2 267
-3 0 -632 0 -631 26 -4 c14 -2 702 -3 1530 -3 l1505 1 0 1529 c0 1523 0 1530
-20 1531 -11 1 -24 3 -30 4 -29 6 -102 4 -118 -3 -9 -4 -23 -5 -29 -1 -15 10
-61 10 -75 1 -7 -4 -14 -4 -17 1 -2 4 -31 6 -63 4 -79 -4 -83 -4 -121 0 -18 3
-35 1 -38 -4 -3 -5 -10 -5 -17 -1 -14 9 -118 10 -123 1 -2 -3 -12 -4 -22 -2
-15 5 -17 21 -17 162 l0 157 134 2 c74 1 142 4 152 6 11 3 19 1 19 -4 0 -5 10
-5 24 1 13 5 26 7 28 5 4 -4 60 -6 238 -6 133 -1 146 -1 255 0 39 0 77 0 85 0
8 -1 42 0 75 0 33 0 67 0 75 0 8 -1 47 -1 85 0 39 0 77 0 85 0 8 0 42 0 75 0
33 0 67 0 75 0 8 0 43 0 78 1 l62 3 0 1758 0 1759 -1759 0 -1760 0 0 -27z"/>
</g>
</svg>
