<svg width="100" height="100" viewBox="0 0 100 100" fill="none" xmlns="http://www.w3.org/2000/svg">
<g filter="url(#filter0_d)">
<path d="M50 0C22.3861 0 0 22.3857 0 50C0 77.6143 22.3861 100 50 100C77.6139 100 100 77.6143 100 50C100 22.3857 77.6139 0 50 0ZM67.2813 52.6504L42.2812 68.2754C41.7754 68.5912 41.2002 68.75 40.625 68.75C40.1039 68.75 39.582 68.6203 39.1098 68.3578C38.1164 67.807 37.5 66.7617 37.5 65.625V34.375C37.5 33.2383 38.1164 32.193 39.1098 31.6422C40.1031 31.0883 41.3178 31.1219 42.2812 31.7246L67.2813 47.3496C68.1945 47.9219 68.75 48.9229 68.75 50C68.75 51.0771 68.1945 52.0783 67.2813 52.6504Z" fill="#D4C17F"/>
<path d="M67.5467 53.0741L67.5462 53.0744L42.5462 68.6994L42.546 68.6995C41.9593 69.0658 41.2921 69.25 40.625 69.25C40.021 69.25 39.4155 69.0997 38.8673 68.7951C38.8672 68.795 38.867 68.7949 38.8669 68.7948L39.1098 68.3578C38.1164 67.807 37.5 66.7617 37.5 65.625V34.375C37.5 33.2383 38.1164 32.193 39.1098 31.6422L67.5467 53.0741ZM67.5467 53.0741C68.6055 52.4109 69.25 51.2498 69.25 50C69.25 48.7501 68.6055 47.5893 67.5467 46.9259L67.5462 46.9256M67.5467 53.0741L67.5462 46.9256M67.5462 46.9256L42.5464 31.3007L67.5462 46.9256ZM0.5 50C0.5 22.6619 22.6623 0.5 50 0.5C77.3377 0.5 99.5 22.6619 99.5 50C99.5 77.3381 77.3377 99.5 50 99.5C22.6623 99.5 0.5 77.3381 0.5 50Z" stroke="black"/>
</g>
<defs>
<filter id="filter0_d" x="-4" y="0" width="108" height="108" filterUnits="userSpaceOnUse" color-interpolation-filters="sRGB">
<feFlood flood-opacity="0" result="BackgroundImageFix"/>
<feColorMatrix in="SourceAlpha" type="matrix" values="0 0 0 0 0 0 0 0 0 0 0 0 0 0 0 0 0 0 127 0"/>
<feOffset dy="4"/>
<feGaussianBlur stdDeviation="2"/>
<feColorMatrix type="matrix" values="0 0 0 0 0 0 0 0 0 0 0 0 0 0 0 0 0 0 0.25 0"/>
<feBlend mode="normal" in2="BackgroundImageFix" result="effect1_dropShadow"/>
<feBlend mode="normal" in="SourceGraphic" in2="effect1_dropShadow" result="shape"/>
</filter>
</defs>
</svg>
