<svg width="140" height="45" viewBox="0 0 140 45" fill="none" xmlns="http://www.w3.org/2000/svg">
<rect x="2.95264" y="4.3877" width="17.1253" height="17.519" fill="#DC281E"/>
<rect y="24.0718" width="17.1253" height="17.519" fill="#DC281E"/>
<rect x="23" width="61" height="24" fill="#DC281E"/>
<rect x="20.4543" y="25.9092" width="19.0909" height="19.0909" fill="#DC281E"/>
<rect x="14.96" y="6.94653" width="10.4327" height="30.117" fill="white"/>
<rect x="5.11792" y="27.2214" width="10.4327" height="30.117" transform="rotate(-90 5.11792 27.2214)" fill="white"/>
<path d="M36.2043 8.93938C36.6093 8.57938 37.0793 8.30438 37.6143 8.11438C38.1493 7.92438 38.7568 7.82938 39.4368 7.82938C39.9918 7.82938 40.4893 7.89688 40.9293 8.03188C41.3743 8.16688 41.7518 8.35688 42.0618 8.60188C42.3718 8.84688 42.6093 9.13688 42.7743 9.47188C42.9443 9.80688 43.0293 10.1744 43.0293 10.5744C43.0293 11.1144 42.8943 11.5894 42.6243 11.9994C42.3593 12.4094 41.9843 12.7269 41.4993 12.9519C41.7743 13.0669 42.0243 13.2094 42.2493 13.3794C42.4743 13.5444 42.6668 13.7319 42.8268 13.9419C42.9918 14.1519 43.1168 14.3819 43.2018 14.6319C43.2918 14.8819 43.3368 15.1444 43.3368 15.4194C43.3368 15.8894 43.2493 16.3294 43.0743 16.7394C42.8993 17.1494 42.6443 17.5069 42.3093 17.8119C41.9793 18.1119 41.5718 18.3494 41.0868 18.5244C40.6018 18.6994 40.0493 18.7869 39.4293 18.7869C38.6593 18.7869 37.9668 18.6619 37.3518 18.4119C36.7368 18.1569 36.2093 17.8144 35.7693 17.3844L36.1893 16.6944C36.2293 16.6394 36.2793 16.5944 36.3393 16.5594C36.3993 16.5194 36.4643 16.4994 36.5343 16.4994C36.6393 16.4994 36.7643 16.5569 36.9093 16.6719C37.0543 16.7819 37.2393 16.9044 37.4643 17.0394C37.6893 17.1744 37.9618 17.2994 38.2818 17.4144C38.6068 17.5244 39.0018 17.5794 39.4668 17.5794C39.8618 17.5794 40.2143 17.5319 40.5243 17.4369C40.8393 17.3419 41.1018 17.2044 41.3118 17.0244C41.5268 16.8444 41.6893 16.6244 41.7993 16.3644C41.9143 16.1044 41.9718 15.8119 41.9718 15.4869C41.9718 15.2069 41.9168 14.9494 41.8068 14.7144C41.7018 14.4794 41.5468 14.2794 41.3418 14.1144C41.1368 13.9444 40.8868 13.8144 40.5918 13.7244C40.2968 13.6294 39.9643 13.5819 39.5943 13.5819H38.1243V12.3894H39.5343C39.8393 12.3894 40.1218 12.3519 40.3818 12.2769C40.6468 12.2019 40.8718 12.0919 41.0568 11.9469C41.2468 11.8019 41.3943 11.6244 41.4993 11.4144C41.6093 11.2044 41.6643 10.9644 41.6643 10.6944C41.6643 10.4494 41.6143 10.2244 41.5143 10.0194C41.4143 9.81438 41.2693 9.63938 41.0793 9.49438C40.8893 9.34438 40.6568 9.22938 40.3818 9.14938C40.1068 9.06938 39.7943 9.02938 39.4443 9.02938C39.0393 9.02938 38.6943 9.07188 38.4093 9.15688C38.1243 9.24188 37.8843 9.33688 37.6893 9.44188C37.4943 9.54188 37.3343 9.63438 37.2093 9.71938C37.0893 9.80438 36.9843 9.84688 36.8943 9.84688C36.8143 9.84688 36.7493 9.82938 36.6993 9.79438C36.6493 9.75938 36.6018 9.70188 36.5568 9.62188L36.2043 8.93938ZM52.2069 17.5419V9.08188H48.6519C48.5919 10.3069 48.5069 11.3819 48.3969 12.3069C48.2869 13.2319 48.1569 14.0344 48.0069 14.7144C47.8569 15.3944 47.6894 15.9644 47.5044 16.4244C47.3194 16.8794 47.1194 17.2519 46.9044 17.5419H52.2069ZM55.4244 17.5419V20.8644C55.4244 20.9944 55.3819 21.0994 55.2969 21.1794C55.2119 21.2594 55.0994 21.2994 54.9594 21.2994H54.0969V18.6819H45.4344V20.8644C45.4344 20.9944 45.3894 21.0994 45.2994 21.1794C45.2144 21.2594 45.1044 21.2994 44.9694 21.2994H44.0994V17.5419H45.1944C45.3494 17.4669 45.5044 17.3469 45.6594 17.1819C45.8144 17.0119 45.9619 16.7719 46.1019 16.4619C46.2469 16.1469 46.3819 15.7519 46.5069 15.2769C46.6319 14.8019 46.7444 14.2219 46.8444 13.5369C46.9494 12.8469 47.0394 12.0419 47.1144 11.1219C47.1894 10.2019 47.2469 9.13938 47.2869 7.93438H53.6694V17.5419H55.4244ZM60.3314 13.5069C60.7464 13.5069 61.1114 13.4519 61.4264 13.3419C61.7464 13.2319 62.0139 13.0794 62.2289 12.8844C62.4489 12.6844 62.6139 12.4469 62.7239 12.1719C62.8339 11.8969 62.8889 11.5944 62.8889 11.2644C62.8889 10.5794 62.6764 10.0444 62.2514 9.65938C61.8314 9.27438 61.1914 9.08188 60.3314 9.08188H58.6064V13.5069H60.3314ZM60.3314 7.93438C61.0114 7.93438 61.6014 8.01438 62.1014 8.17438C62.6064 8.32938 63.0239 8.55188 63.3539 8.84188C63.6839 9.13188 63.9289 9.48188 64.0889 9.89188C64.2539 10.3019 64.3364 10.7594 64.3364 11.2644C64.3364 11.7644 64.2489 12.2219 64.0739 12.6369C63.8989 13.0519 63.6414 13.4094 63.3014 13.7094C62.9664 14.0094 62.5489 14.2444 62.0489 14.4144C61.5539 14.5794 60.9814 14.6619 60.3314 14.6619H58.6064V18.6819H57.1589V7.93438H60.3314ZM71.1277 14.6919L69.4402 10.3194C69.3902 10.1894 69.3377 10.0394 69.2827 9.86938C69.2277 9.69438 69.1752 9.50938 69.1252 9.31438C69.0202 9.71938 68.9127 10.0569 68.8027 10.3269L67.1152 14.6919H71.1277ZM74.1577 18.6819H73.0327C72.9027 18.6819 72.7977 18.6494 72.7177 18.5844C72.6377 18.5194 72.5777 18.4369 72.5377 18.3369L71.5327 15.7419H66.7102L65.7052 18.3369C65.6752 18.4269 65.6177 18.5069 65.5327 18.5769C65.4477 18.6469 65.3402 18.6819 65.2102 18.6819H64.0927L68.3902 7.93438H69.8602L74.1577 18.6819ZM79.3298 17.5269C79.7448 17.5269 80.1023 17.4794 80.4023 17.3844C80.7023 17.2894 80.9473 17.1569 81.1373 16.9869C81.3323 16.8119 81.4748 16.6069 81.5648 16.3719C81.6548 16.1319 81.6998 15.8694 81.6998 15.5844C81.6998 15.0294 81.5023 14.5919 81.1073 14.2719C80.7123 13.9469 80.1198 13.7844 79.3298 13.7844H77.0048V17.5269H79.3298ZM77.0048 9.08188V12.7494H78.9248C79.3348 12.7494 79.6898 12.7044 79.9898 12.6144C80.2948 12.5244 80.5448 12.3994 80.7398 12.2394C80.9398 12.0794 81.0873 11.8869 81.1823 11.6619C81.2773 11.4319 81.3248 11.1819 81.3248 10.9119C81.3248 10.2769 81.1348 9.81438 80.7548 9.52438C80.3748 9.22938 79.7848 9.08188 78.9848 9.08188H77.0048ZM78.9848 7.93438C79.6448 7.93438 80.2123 7.99938 80.6873 8.12938C81.1673 8.25938 81.5598 8.44438 81.8648 8.68438C82.1748 8.92438 82.4023 9.21938 82.5473 9.56938C82.6923 9.91438 82.7648 10.3044 82.7648 10.7394C82.7648 11.0044 82.7223 11.2594 82.6373 11.5044C82.5573 11.7444 82.4348 11.9694 82.2698 12.1794C82.1048 12.3894 81.8948 12.5794 81.6398 12.7494C81.3898 12.9144 81.0948 13.0494 80.7548 13.1544C81.5448 13.3044 82.1373 13.5869 82.5323 14.0019C82.9323 14.4119 83.1323 14.9519 83.1323 15.6219C83.1323 16.0769 83.0473 16.4919 82.8773 16.8669C82.7123 17.2419 82.4673 17.5644 82.1423 17.8344C81.8223 18.1044 81.4273 18.3144 80.9573 18.4644C80.4873 18.6094 79.9523 18.6819 79.3523 18.6819H75.5573V7.93438H78.9848Z" fill="white"/>
<path d="M91.7271 9.08188H86.7096V18.6819H85.2546V7.93438H91.7271V9.08188ZM97.6561 14.6919L95.9686 10.3194C95.9186 10.1894 95.8661 10.0394 95.8111 9.86938C95.7561 9.69438 95.7036 9.50938 95.6536 9.31438C95.5486 9.71938 95.4411 10.0569 95.3311 10.3269L93.6436 14.6919H97.6561ZM100.686 18.6819H99.5611C99.4311 18.6819 99.3261 18.6494 99.2461 18.5844C99.1661 18.5194 99.1061 18.4369 99.0661 18.3369L98.0611 15.7419H93.2386L92.2336 18.3369C92.2036 18.4269 92.1461 18.5069 92.0611 18.5769C91.9761 18.6469 91.8686 18.6819 91.7386 18.6819H90.6211L94.9186 7.93438H96.3886L100.686 18.6819ZM105.258 13.5069C105.673 13.5069 106.038 13.4519 106.353 13.3419C106.673 13.2319 106.941 13.0794 107.156 12.8844C107.376 12.6844 107.541 12.4469 107.651 12.1719C107.761 11.8969 107.816 11.5944 107.816 11.2644C107.816 10.5794 107.603 10.0444 107.178 9.65938C106.758 9.27438 106.118 9.08188 105.258 9.08188H103.533V13.5069H105.258ZM105.258 7.93438C105.938 7.93438 106.528 8.01438 107.028 8.17438C107.533 8.32938 107.951 8.55188 108.281 8.84188C108.611 9.13188 108.856 9.48188 109.016 9.89188C109.181 10.3019 109.263 10.7594 109.263 11.2644C109.263 11.7644 109.176 12.2219 109.001 12.6369C108.826 13.0519 108.568 13.4094 108.228 13.7094C107.893 14.0094 107.476 14.2444 106.976 14.4144C106.481 14.5794 105.908 14.6619 105.258 14.6619H103.533V18.6819H102.086V7.93438H105.258ZM116.055 14.6919L114.367 10.3194C114.317 10.1894 114.265 10.0394 114.21 9.86938C114.155 9.69438 114.102 9.50938 114.052 9.31438C113.947 9.71938 113.84 10.0569 113.73 10.3269L112.042 14.6919H116.055ZM119.085 18.6819H117.96C117.83 18.6819 117.725 18.6494 117.645 18.5844C117.565 18.5194 117.505 18.4369 117.465 18.3369L116.46 15.7419H111.637L110.632 18.3369C110.602 18.4269 110.545 18.5069 110.46 18.5769C110.375 18.6469 110.267 18.6819 110.137 18.6819H109.02L113.317 7.93438H114.787L119.085 18.6819ZM129.192 7.93438V18.6819H127.737V13.7919H121.939V18.6819H120.484V7.93438H121.939V12.7269H127.737V7.93438H129.192ZM139.207 9.15688H135.727V18.6819H134.279V9.15688H130.792V7.93438H139.207V9.15688Z" fill="#DC281E"/>
<path d="M43.6938 31H43.0225V27.7112H41.2V31H40.5288V27.2012H43.6938V31ZM47.2973 28.6862C47.2973 28.5312 47.2748 28.39 47.2298 28.2625C47.1873 28.1325 47.1236 28.0212 47.0386 27.9287C46.9561 27.8337 46.8548 27.7612 46.7348 27.7112C46.6148 27.6587 46.4786 27.6325 46.3261 27.6325C46.0061 27.6325 45.7523 27.7262 45.5648 27.9137C45.3798 28.0987 45.2648 28.3562 45.2198 28.6862H47.2973ZM47.8373 30.4675C47.7548 30.5675 47.6561 30.655 47.5411 30.73C47.4261 30.8025 47.3023 30.8625 47.1698 30.91C47.0398 30.9575 46.9048 30.9925 46.7648 31.015C46.6248 31.04 46.4861 31.0525 46.3486 31.0525C46.0861 31.0525 45.8436 31.0087 45.6211 30.9212C45.4011 30.8312 45.2098 30.7012 45.0473 30.5312C44.8873 30.3587 44.7623 30.1462 44.6723 29.8937C44.5823 29.6412 44.5373 29.3512 44.5373 29.0237C44.5373 28.7587 44.5773 28.5112 44.6573 28.2812C44.7398 28.0512 44.8573 27.8525 45.0098 27.685C45.1623 27.515 45.3486 27.3825 45.5686 27.2875C45.7886 27.19 46.0361 27.1412 46.3111 27.1412C46.5386 27.1412 46.7486 27.18 46.9411 27.2575C47.1361 27.3325 47.3036 27.4425 47.4436 27.5875C47.5861 27.73 47.6973 27.9075 47.7773 28.12C47.8573 28.33 47.8973 28.57 47.8973 28.84C47.8973 28.945 47.8861 29.015 47.8636 29.05C47.8411 29.085 47.7986 29.1025 47.7361 29.1025H45.1973C45.2048 29.3425 45.2373 29.5512 45.2948 29.7287C45.3548 29.9062 45.4373 30.055 45.5423 30.175C45.6473 30.2925 45.7723 30.3812 45.9173 30.4412C46.0623 30.4987 46.2248 30.5275 46.4048 30.5275C46.5723 30.5275 46.7161 30.5087 46.8361 30.4712C46.9586 30.4312 47.0636 30.3887 47.1511 30.3437C47.2386 30.2987 47.3111 30.2575 47.3686 30.22C47.4286 30.18 47.4798 30.16 47.5223 30.16C47.5773 30.16 47.6198 30.1812 47.6498 30.2237L47.8373 30.4675ZM49.3885 30.085C49.511 30.25 49.6447 30.3662 49.7897 30.4337C49.9347 30.5012 50.0972 30.535 50.2772 30.535C50.6322 30.535 50.9047 30.4087 51.0947 30.1562C51.2847 29.9037 51.3797 29.5437 51.3797 29.0762C51.3797 28.8287 51.3572 28.6162 51.3122 28.4387C51.2697 28.2612 51.2072 28.1162 51.1247 28.0037C51.0422 27.8887 50.941 27.805 50.821 27.7525C50.701 27.7 50.5647 27.6737 50.4122 27.6737C50.1947 27.6737 50.0035 27.7237 49.8385 27.8237C49.676 27.9237 49.526 28.065 49.3885 28.2475V30.085ZM49.3547 27.79C49.5147 27.5925 49.6997 27.4337 49.9097 27.3137C50.1197 27.1937 50.3597 27.1337 50.6297 27.1337C50.8497 27.1337 51.0485 27.1762 51.226 27.2612C51.4035 27.3437 51.5547 27.4675 51.6797 27.6325C51.8047 27.795 51.901 27.9975 51.9685 28.24C52.036 28.4825 52.0697 28.7612 52.0697 29.0762C52.0697 29.3562 52.0322 29.6175 51.9572 29.86C51.8822 30.1 51.7735 30.3087 51.631 30.4862C51.491 30.6612 51.3185 30.8 51.1135 30.9025C50.911 31.0025 50.6822 31.0525 50.4272 31.0525C50.1947 31.0525 49.9947 31.0137 49.8272 30.9362C49.6622 30.8562 49.516 30.7462 49.3885 30.6062V32.2863H48.7172V27.2012H49.1185C49.2135 27.2012 49.2722 27.2475 49.2947 27.34L49.3547 27.79ZM55.4565 28.6862C55.4565 28.5312 55.434 28.39 55.389 28.2625C55.3465 28.1325 55.2828 28.0212 55.1978 27.9287C55.1153 27.8337 55.014 27.7612 54.894 27.7112C54.774 27.6587 54.6378 27.6325 54.4853 27.6325C54.1653 27.6325 53.9115 27.7262 53.724 27.9137C53.539 28.0987 53.424 28.3562 53.379 28.6862H55.4565ZM55.9965 30.4675C55.914 30.5675 55.8153 30.655 55.7003 30.73C55.5853 30.8025 55.4615 30.8625 55.329 30.91C55.199 30.9575 55.064 30.9925 54.924 31.015C54.784 31.04 54.6453 31.0525 54.5078 31.0525C54.2453 31.0525 54.0028 31.0087 53.7803 30.9212C53.5603 30.8312 53.369 30.7012 53.2065 30.5312C53.0465 30.3587 52.9215 30.1462 52.8315 29.8937C52.7415 29.6412 52.6965 29.3512 52.6965 29.0237C52.6965 28.7587 52.7365 28.5112 52.8165 28.2812C52.899 28.0512 53.0165 27.8525 53.169 27.685C53.3215 27.515 53.5078 27.3825 53.7278 27.2875C53.9478 27.19 54.1953 27.1412 54.4703 27.1412C54.6978 27.1412 54.9078 27.18 55.1003 27.2575C55.2953 27.3325 55.4628 27.4425 55.6028 27.5875C55.7453 27.73 55.8565 27.9075 55.9365 28.12C56.0165 28.33 56.0565 28.57 56.0565 28.84C56.0565 28.945 56.0453 29.015 56.0228 29.05C56.0003 29.085 55.9578 29.1025 55.8953 29.1025H53.3565C53.364 29.3425 53.3965 29.5512 53.454 29.7287C53.514 29.9062 53.5965 30.055 53.7015 30.175C53.8065 30.2925 53.9315 30.3812 54.0765 30.4412C54.2215 30.4987 54.384 30.5275 54.564 30.5275C54.7315 30.5275 54.8753 30.5087 54.9953 30.4712C55.1178 30.4312 55.2228 30.3887 55.3103 30.3437C55.3978 30.2987 55.4703 30.2575 55.5278 30.22C55.5878 30.18 55.639 30.16 55.6815 30.16C55.7365 30.16 55.779 30.1812 55.809 30.2237L55.9965 30.4675ZM58.3352 30.5312C58.5852 30.5312 58.7827 30.4737 58.9277 30.3587C59.0727 30.2412 59.1452 30.0812 59.1452 29.8787C59.1452 29.7887 59.1314 29.7075 59.1039 29.635C59.0764 29.56 59.0314 29.495 58.9689 29.44C58.9064 29.385 58.8227 29.3425 58.7177 29.3125C58.6152 29.2825 58.4889 29.2675 58.3389 29.2675H57.5177V30.5312H58.3352ZM57.5177 27.6512V28.8437H58.2489C58.3589 28.8437 58.4602 28.8287 58.5527 28.7987C58.6477 28.7662 58.7289 28.7225 58.7964 28.6675C58.8639 28.61 58.9164 28.5425 58.9539 28.465C58.9914 28.385 59.0102 28.2975 59.0102 28.2025C59.0102 28.1325 58.9977 28.065 58.9727 28C58.9477 27.9325 58.9052 27.8737 58.8452 27.8237C58.7852 27.7712 58.7064 27.73 58.6089 27.7C58.5114 27.6675 58.3914 27.6512 58.2489 27.6512H57.5177ZM58.2677 27.2012C58.5027 27.2012 58.7039 27.225 58.8714 27.2725C59.0389 27.32 59.1764 27.385 59.2839 27.4675C59.3914 27.5475 59.4702 27.6425 59.5202 27.7525C59.5702 27.8625 59.5952 27.98 59.5952 28.105C59.5952 28.1875 59.5839 28.2737 59.5614 28.3637C59.5389 28.4537 59.4989 28.54 59.4414 28.6225C59.3864 28.705 59.3102 28.78 59.2127 28.8475C59.1177 28.9125 58.9977 28.9637 58.8527 29.0012C59.1427 29.0512 59.3664 29.1525 59.5239 29.305C59.6814 29.455 59.7602 29.6537 59.7602 29.9012C59.7602 30.0862 59.7227 30.2475 59.6477 30.385C59.5752 30.52 59.4739 30.6337 59.3439 30.7262C59.2164 30.8187 59.0664 30.8875 58.8939 30.9325C58.7214 30.9775 58.5364 31 58.3389 31H56.8764V27.2012H58.2677ZM62.1984 27.1412C62.4759 27.1412 62.7259 27.1875 62.9484 27.28C63.1709 27.3725 63.3609 27.5037 63.5184 27.6737C63.6759 27.8437 63.7959 28.05 63.8784 28.2925C63.9634 28.5325 64.0059 28.8012 64.0059 29.0987C64.0059 29.3987 63.9634 29.6687 63.8784 29.9087C63.7959 30.1487 63.6759 30.3537 63.5184 30.5237C63.3609 30.6937 63.1709 30.825 62.9484 30.9175C62.7259 31.0075 62.4759 31.0525 62.1984 31.0525C61.9184 31.0525 61.6659 31.0075 61.4409 30.9175C61.2184 30.825 61.0284 30.6937 60.8709 30.5237C60.7134 30.3537 60.5921 30.1487 60.5071 29.9087C60.4246 29.6687 60.3834 29.3987 60.3834 29.0987C60.3834 28.8012 60.4246 28.5325 60.5071 28.2925C60.5921 28.05 60.7134 27.8437 60.8709 27.6737C61.0284 27.5037 61.2184 27.3725 61.4409 27.28C61.6659 27.1875 61.9184 27.1412 62.1984 27.1412ZM62.1984 30.5312C62.5734 30.5312 62.8534 30.4062 63.0384 30.1562C63.2234 29.9037 63.3159 29.5525 63.3159 29.1025C63.3159 28.65 63.2234 28.2975 63.0384 28.045C62.8534 27.7925 62.5734 27.6662 62.1984 27.6662C62.0084 27.6662 61.8421 27.6987 61.6996 27.7637C61.5596 27.8287 61.4421 27.9225 61.3471 28.045C61.2546 28.1675 61.1846 28.3187 61.1371 28.4987C61.0921 28.6762 61.0696 28.8775 61.0696 29.1025C61.0696 29.5525 61.1621 29.9037 61.3471 30.1562C61.5346 30.4062 61.8184 30.5312 62.1984 30.5312ZM64.5392 27.5912C64.6817 27.4562 64.8542 27.3475 65.0567 27.265C65.2617 27.1825 65.508 27.1412 65.7955 27.1412C66.0255 27.1412 66.228 27.17 66.403 27.2275C66.578 27.2825 66.7242 27.3562 66.8417 27.4487C66.9617 27.5412 67.0517 27.6475 67.1117 27.7675C67.1742 27.885 67.2055 28.0075 67.2055 28.135C67.2055 28.21 67.193 28.2887 67.168 28.3712C67.1455 28.4537 67.1067 28.5325 67.0517 28.6075C66.9967 28.6825 66.9255 28.7525 66.838 28.8175C66.7505 28.8825 66.6417 28.935 66.5117 28.975C66.7542 29.0475 66.9442 29.1637 67.0817 29.3237C67.2217 29.4837 67.2917 29.68 67.2917 29.9125C67.2917 30.0875 67.2517 30.2462 67.1717 30.3887C67.0917 30.5287 66.9842 30.6487 66.8492 30.7487C66.7142 30.8462 66.5567 30.9212 66.3767 30.9737C66.1992 31.0263 66.013 31.0525 65.818 31.0525C65.6955 31.0525 65.5705 31.0413 65.443 31.0188C65.318 30.9962 65.1955 30.9612 65.0755 30.9137C64.9555 30.8637 64.8417 30.8025 64.7342 30.73C64.6292 30.6575 64.5355 30.57 64.453 30.4675L64.6405 30.2237C64.6705 30.1812 64.713 30.16 64.768 30.16C64.813 30.16 64.8605 30.18 64.9105 30.22C64.963 30.2575 65.0267 30.3 65.1017 30.3475C65.1767 30.395 65.268 30.4387 65.3755 30.4787C65.4855 30.5162 65.6192 30.535 65.7767 30.535C65.9142 30.535 66.0367 30.5187 66.1442 30.4862C66.2542 30.4512 66.3467 30.4037 66.4217 30.3437C66.4967 30.2837 66.5542 30.2125 66.5942 30.13C66.6342 30.0475 66.6542 29.9575 66.6542 29.86C66.6542 29.6725 66.5755 29.5212 66.418 29.4062C66.263 29.2912 66.0267 29.2337 65.7092 29.2337H65.278V28.7912H65.7092C65.8467 28.7912 65.9705 28.7775 66.0805 28.75C66.1905 28.72 66.2842 28.68 66.3617 28.63C66.4392 28.58 66.498 28.52 66.538 28.45C66.578 28.3775 66.598 28.3 66.598 28.2175C66.598 28.1425 66.5805 28.0712 66.5455 28.0037C66.513 27.9362 66.4617 27.8775 66.3917 27.8275C66.3242 27.7775 66.2392 27.7375 66.1367 27.7075C66.0342 27.6775 65.9142 27.6625 65.7767 27.6625C65.6267 27.6625 65.4992 27.6775 65.3942 27.7075C65.2917 27.7375 65.2042 27.77 65.1317 27.805C65.0617 27.84 65.0042 27.8725 64.9592 27.9025C64.9142 27.9325 64.8755 27.9475 64.843 27.9475C64.8105 27.9475 64.783 27.9412 64.7605 27.9287C64.7405 27.9162 64.718 27.89 64.693 27.85L64.5392 27.5912ZM70.4546 27.3887C70.4896 27.3337 70.5359 27.2887 70.5934 27.2537C70.6509 27.2187 70.7121 27.2012 70.7771 27.2012H71.2984L70.3121 28.6487C70.2521 28.7412 70.1896 28.8175 70.1246 28.8775C70.0596 28.935 69.9796 28.98 69.8846 29.0125C70.0046 29.045 70.1059 29.0962 70.1884 29.1662C70.2709 29.2337 70.3446 29.3212 70.4096 29.4287L71.4071 31H70.9421C70.8221 31 70.7296 30.98 70.6646 30.94C70.5996 30.9 70.5434 30.8425 70.4959 30.7675L69.7571 29.5862C69.6396 29.3912 69.4634 29.2937 69.2284 29.2937H68.8196V31.0038H68.1484V27.2012H68.8196V28.8437H69.1796C69.3796 28.8437 69.5359 28.7587 69.6484 28.5887L70.4546 27.3887ZM74.089 29.29C73.7815 29.3 73.519 29.325 73.3015 29.365C73.0865 29.4025 72.9102 29.4525 72.7727 29.515C72.6377 29.5775 72.539 29.6512 72.4765 29.7362C72.4165 29.8212 72.3865 29.9162 72.3865 30.0212C72.3865 30.1212 72.4027 30.2075 72.4352 30.28C72.4677 30.3525 72.5115 30.4125 72.5665 30.46C72.624 30.505 72.6902 30.5387 72.7652 30.5612C72.8427 30.5812 72.9252 30.5912 73.0127 30.5912C73.1302 30.5912 73.2377 30.58 73.3352 30.5575C73.4327 30.5325 73.524 30.4975 73.609 30.4525C73.6965 30.4075 73.779 30.3537 73.8565 30.2912C73.9365 30.2287 74.014 30.1575 74.089 30.0775V29.29ZM71.9327 27.7375C72.1427 27.535 72.369 27.3837 72.6115 27.2837C72.854 27.1837 73.1227 27.1337 73.4177 27.1337C73.6302 27.1337 73.819 27.1687 73.984 27.2387C74.149 27.3087 74.2877 27.4062 74.4002 27.5312C74.5127 27.6562 74.5977 27.8075 74.6552 27.985C74.7127 28.1625 74.7415 28.3575 74.7415 28.57V31H74.4452C74.3802 31 74.3302 30.99 74.2952 30.97C74.2602 30.9475 74.2327 30.905 74.2127 30.8425L74.1377 30.4825C74.0377 30.575 73.9402 30.6575 73.8452 30.73C73.7502 30.8 73.6502 30.86 73.5452 30.91C73.4402 30.9575 73.3277 30.9937 73.2077 31.0188C73.0902 31.0463 72.959 31.06 72.814 31.06C72.6665 31.06 72.5277 31.04 72.3977 31C72.2677 30.9575 72.154 30.895 72.0565 30.8125C71.9615 30.73 71.8852 30.6262 71.8277 30.5012C71.7727 30.3737 71.7452 30.2237 71.7452 30.0512C71.7452 29.9012 71.7865 29.7575 71.869 29.62C71.9515 29.48 72.0852 29.3562 72.2702 29.2487C72.4552 29.1412 72.6965 29.0537 72.994 28.9862C73.2915 28.9163 73.6565 28.8762 74.089 28.8662V28.57C74.089 28.275 74.0252 28.0525 73.8977 27.9025C73.7702 27.75 73.584 27.6737 73.339 27.6737C73.174 27.6737 73.0352 27.695 72.9227 27.7375C72.8127 27.7775 72.7165 27.8237 72.634 27.8762C72.554 27.9262 72.484 27.9725 72.424 28.015C72.3665 28.055 72.309 28.075 72.2515 28.075C72.2065 28.075 72.1677 28.0637 72.1352 28.0412C72.1027 28.0162 72.0752 27.9862 72.0527 27.9512L71.9327 27.7375ZM81.0072 31H80.3397V27.7262H79.1397C79.1097 28.2087 79.0647 28.6262 79.0047 28.9787C78.9447 29.3287 78.8722 29.6275 78.7872 29.875C78.7047 30.12 78.6109 30.32 78.5059 30.475C78.4034 30.6275 78.2947 30.7462 78.1797 30.8312C78.0672 30.9162 77.9497 30.9737 77.8272 31.0038C77.7072 31.0338 77.5872 31.0488 77.4672 31.0488C77.2547 31.0488 77.1484 31.015 77.1484 30.9475V30.5237H77.3434C77.4284 30.5237 77.5147 30.5087 77.6022 30.4787C77.6897 30.4487 77.7747 30.3912 77.8572 30.3062C77.9422 30.2212 78.0234 30.1025 78.1009 29.95C78.1784 29.795 78.2484 29.595 78.3109 29.35C78.3759 29.1025 78.4309 28.8037 78.4759 28.4537C78.5234 28.1012 78.5597 27.6837 78.5847 27.2012H81.0072V31ZM84.6069 28.6862C84.6069 28.5312 84.5844 28.39 84.5394 28.2625C84.4969 28.1325 84.4331 28.0212 84.3481 27.9287C84.2656 27.8337 84.1644 27.7612 84.0444 27.7112C83.9244 27.6587 83.7881 27.6325 83.6356 27.6325C83.3156 27.6325 83.0619 27.7262 82.8744 27.9137C82.6894 28.0987 82.5744 28.3562 82.5294 28.6862H84.6069ZM85.1469 30.4675C85.0644 30.5675 84.9656 30.655 84.8506 30.73C84.7356 30.8025 84.6119 30.8625 84.4794 30.91C84.3494 30.9575 84.2144 30.9925 84.0744 31.015C83.9344 31.04 83.7956 31.0525 83.6581 31.0525C83.3956 31.0525 83.1531 31.0087 82.9306 30.9212C82.7106 30.8312 82.5194 30.7012 82.3569 30.5312C82.1969 30.3587 82.0719 30.1462 81.9819 29.8937C81.8919 29.6412 81.8469 29.3512 81.8469 29.0237C81.8469 28.7587 81.8869 28.5112 81.9669 28.2812C82.0494 28.0512 82.1669 27.8525 82.3194 27.685C82.4719 27.515 82.6581 27.3825 82.8781 27.2875C83.0981 27.19 83.3456 27.1412 83.6206 27.1412C83.8481 27.1412 84.0581 27.18 84.2506 27.2575C84.4456 27.3325 84.6131 27.4425 84.7531 27.5875C84.8956 27.73 85.0069 27.9075 85.0869 28.12C85.1669 28.33 85.2069 28.57 85.2069 28.84C85.2069 28.945 85.1956 29.015 85.1731 29.05C85.1506 29.085 85.1081 29.1025 85.0456 29.1025H82.5069C82.5144 29.3425 82.5469 29.5512 82.6044 29.7287C82.6644 29.9062 82.7469 30.055 82.8519 30.175C82.9569 30.2925 83.0819 30.3812 83.2269 30.4412C83.3719 30.4987 83.5344 30.5275 83.7144 30.5275C83.8819 30.5275 84.0256 30.5087 84.1456 30.4712C84.2681 30.4312 84.3731 30.3887 84.4606 30.3437C84.5481 30.2987 84.6206 30.2575 84.6781 30.22C84.7381 30.18 84.7894 30.16 84.8319 30.16C84.8869 30.16 84.9294 30.1812 84.9594 30.2237L85.1469 30.4675ZM91.285 31H90.82C90.7 31 90.6075 30.9812 90.5425 30.9437C90.48 30.9062 90.4313 30.8475 90.3963 30.7675L89.6575 29.5862C89.535 29.3912 89.3588 29.2937 89.1288 29.2937H88.7463V31.0038H88.0975V29.2937H87.7188C87.6063 29.2937 87.5038 29.3187 87.4113 29.3687C87.3213 29.4187 87.2475 29.4912 87.19 29.5862L86.4513 30.7675C86.4138 30.8475 86.3625 30.9062 86.2975 30.9437C86.235 30.9812 86.1438 31 86.0238 31H85.5625L86.56 29.4287C86.625 29.3187 86.6988 29.23 86.7813 29.1625C86.8638 29.095 86.965 29.0437 87.085 29.0087C86.99 28.9787 86.9088 28.935 86.8413 28.8775C86.7763 28.8175 86.715 28.7412 86.6575 28.6487L85.6675 27.2012H86.1925C86.2575 27.2012 86.3163 27.2187 86.3688 27.2537C86.4213 27.2862 86.4625 27.3312 86.4925 27.3887L87.2988 28.5887C87.3538 28.6712 87.42 28.735 87.4975 28.78C87.575 28.8225 87.6663 28.8437 87.7713 28.8437H88.0975V27.2012H88.7463V28.8437H89.065C89.2775 28.8437 89.4375 28.7587 89.545 28.5887L90.3513 27.3887C90.3813 27.3312 90.4225 27.2862 90.475 27.2537C90.53 27.2187 90.59 27.2012 90.655 27.2012H91.18L90.19 28.6487C90.1325 28.7412 90.07 28.8175 90.0025 28.8775C89.9375 28.935 89.8575 28.9787 89.7625 29.0087C89.8825 29.0437 89.9838 29.095 90.0663 29.1625C90.1488 29.23 90.2225 29.3187 90.2875 29.4287L91.285 31ZM93.9669 29.29C93.6594 29.3 93.3969 29.325 93.1794 29.365C92.9644 29.4025 92.7881 29.4525 92.6506 29.515C92.5156 29.5775 92.4169 29.6512 92.3544 29.7362C92.2944 29.8212 92.2644 29.9162 92.2644 30.0212C92.2644 30.1212 92.2806 30.2075 92.3131 30.28C92.3456 30.3525 92.3894 30.4125 92.4444 30.46C92.5019 30.505 92.5681 30.5387 92.6431 30.5612C92.7206 30.5812 92.8031 30.5912 92.8906 30.5912C93.0081 30.5912 93.1156 30.58 93.2131 30.5575C93.3106 30.5325 93.4019 30.4975 93.4869 30.4525C93.5744 30.4075 93.6569 30.3537 93.7344 30.2912C93.8144 30.2287 93.8919 30.1575 93.9669 30.0775V29.29ZM91.8106 27.7375C92.0206 27.535 92.2469 27.3837 92.4894 27.2837C92.7319 27.1837 93.0006 27.1337 93.2956 27.1337C93.5081 27.1337 93.6969 27.1687 93.8619 27.2387C94.0269 27.3087 94.1656 27.4062 94.2781 27.5312C94.3906 27.6562 94.4756 27.8075 94.5331 27.985C94.5906 28.1625 94.6194 28.3575 94.6194 28.57V31H94.3231C94.2581 31 94.2081 30.99 94.1731 30.97C94.1381 30.9475 94.1106 30.905 94.0906 30.8425L94.0156 30.4825C93.9156 30.575 93.8181 30.6575 93.7231 30.73C93.6281 30.8 93.5281 30.86 93.4231 30.91C93.3181 30.9575 93.2056 30.9937 93.0856 31.0188C92.9681 31.0463 92.8369 31.06 92.6919 31.06C92.5444 31.06 92.4056 31.04 92.2756 31C92.1456 30.9575 92.0319 30.895 91.9344 30.8125C91.8394 30.73 91.7631 30.6262 91.7056 30.5012C91.6506 30.3737 91.6231 30.2237 91.6231 30.0512C91.6231 29.9012 91.6644 29.7575 91.7469 29.62C91.8294 29.48 91.9631 29.3562 92.1481 29.2487C92.3331 29.1412 92.5744 29.0537 92.8719 28.9862C93.1694 28.9163 93.5344 28.8762 93.9669 28.8662V28.57C93.9669 28.275 93.9031 28.0525 93.7756 27.9025C93.6481 27.75 93.4619 27.6737 93.2169 27.6737C93.0519 27.6737 92.9131 27.695 92.8006 27.7375C92.6906 27.7775 92.5944 27.8237 92.5119 27.8762C92.4319 27.9262 92.3619 27.9725 92.3019 28.015C92.2444 28.055 92.1869 28.075 92.1294 28.075C92.0844 28.075 92.0456 28.0637 92.0131 28.0412C91.9806 28.0162 91.9531 27.9862 91.9306 27.9512L91.8106 27.7375ZM98.4374 27.2012V31H97.7699V29.3875C97.4449 29.4725 97.1387 29.5262 96.8512 29.5487C96.5662 29.5687 96.3162 29.5462 96.1012 29.4812C95.8887 29.4162 95.7199 29.3025 95.5949 29.14C95.4724 28.975 95.4112 28.7475 95.4112 28.4575V27.2012H96.0824V28.3562C96.0824 28.5387 96.1187 28.6825 96.1912 28.7875C96.2662 28.8925 96.3749 28.965 96.5174 29.005C96.6599 29.045 96.8362 29.0562 97.0462 29.0387C97.2562 29.0212 97.4974 28.98 97.7699 28.915V27.2012H98.4374ZM102.755 27.2012V31H102.087V28.42C102.087 28.37 102.09 28.3162 102.095 28.2587C102.1 28.2012 102.106 28.1437 102.114 28.0862C102.091 28.1362 102.069 28.1825 102.046 28.225C102.024 28.2675 102 28.3062 101.975 28.3412L100.141 30.835C100.114 30.875 100.079 30.9137 100.036 30.9512C99.996 30.9862 99.951 31.0038 99.901 31.0038H99.496V27.205H100.167V29.785C100.167 29.8325 100.165 29.885 100.16 29.9425C100.155 29.9975 100.149 30.0537 100.141 30.1112C100.164 30.0637 100.186 30.02 100.209 29.98C100.231 29.9375 100.254 29.8987 100.276 29.8637L102.11 27.37C102.137 27.33 102.172 27.2925 102.215 27.2575C102.257 27.22 102.304 27.2012 102.354 27.2012H102.755ZM106.93 31H106.289C106.234 31 106.19 30.9862 106.158 30.9587C106.128 30.9287 106.103 30.8962 106.083 30.8612L105.126 29.3725C105.116 29.4075 105.105 29.4425 105.093 29.4775C105.083 29.51 105.068 29.54 105.048 29.5675L104.163 30.8612C104.138 30.8962 104.11 30.9287 104.08 30.9587C104.053 30.9862 104.014 31 103.964 31H103.368L104.699 29.05L103.42 27.2012H104.061C104.116 27.2012 104.156 27.21 104.181 27.2275C104.206 27.245 104.229 27.27 104.249 27.3025L105.183 28.7275C105.203 28.655 105.234 28.585 105.276 28.5175L106.094 27.3175C106.116 27.2825 106.14 27.255 106.165 27.235C106.193 27.2125 106.225 27.2012 106.263 27.2012H106.878L105.599 29.0162L106.93 31ZM111.178 30.5575C111.553 30.5575 111.836 30.4387 112.026 30.2012C112.218 29.9612 112.314 29.6262 112.314 29.1962C112.314 28.7687 112.222 28.435 112.037 28.195C111.854 27.955 111.579 27.835 111.212 27.835C111.034 27.835 110.874 27.8637 110.732 27.9212C110.589 27.9762 110.468 28.0575 110.368 28.165C110.271 28.2725 110.194 28.405 110.139 28.5625C110.087 28.72 110.061 28.9 110.061 29.1025C110.061 29.33 110.084 29.5337 110.132 29.7137C110.179 29.8937 110.249 30.0462 110.342 30.1712C110.437 30.2962 110.553 30.3925 110.691 30.46C110.831 30.525 110.993 30.5575 111.178 30.5575ZM111.437 26.3087C111.182 26.3312 110.963 26.3875 110.781 26.4775C110.601 26.5675 110.451 26.69 110.331 26.845C110.211 26.9975 110.121 27.1812 110.061 27.3962C110.001 27.6112 109.966 27.8537 109.956 28.1237C110.016 28.0037 110.093 27.8962 110.188 27.8012C110.283 27.7037 110.392 27.6212 110.514 27.5537C110.637 27.4837 110.769 27.4312 110.912 27.3962C111.057 27.3587 111.211 27.34 111.373 27.34C111.626 27.34 111.852 27.385 112.052 27.475C112.254 27.5625 112.426 27.6875 112.566 27.85C112.708 28.0125 112.817 28.2087 112.892 28.4387C112.967 28.6662 113.004 28.9187 113.004 29.1962C113.004 29.4787 112.961 29.735 112.873 29.965C112.788 30.1925 112.666 30.3875 112.506 30.55C112.346 30.71 112.153 30.8337 111.928 30.9212C111.706 31.0087 111.456 31.0525 111.178 31.0525C110.923 31.0525 110.684 31.01 110.462 30.925C110.239 30.84 110.047 30.7 109.884 30.505C109.722 30.31 109.593 30.0537 109.498 29.7362C109.406 29.4162 109.359 29.0225 109.359 28.555C109.359 28.155 109.396 27.7875 109.468 27.4525C109.541 27.1175 109.657 26.8262 109.817 26.5787C109.979 26.3312 110.188 26.1325 110.443 25.9825C110.701 25.83 111.013 25.7375 111.381 25.705L112.738 25.5887L112.776 25.9337C112.783 26.0112 112.772 26.0762 112.742 26.1287C112.712 26.1812 112.658 26.21 112.581 26.215L111.437 26.3087ZM115.453 27.1412C115.73 27.1412 115.98 27.1875 116.203 27.28C116.425 27.3725 116.615 27.5037 116.773 27.6737C116.93 27.8437 117.05 28.05 117.133 28.2925C117.218 28.5325 117.26 28.8012 117.26 29.0987C117.26 29.3987 117.218 29.6687 117.133 29.9087C117.05 30.1487 116.93 30.3537 116.773 30.5237C116.615 30.6937 116.425 30.825 116.203 30.9175C115.98 31.0075 115.73 31.0525 115.453 31.0525C115.173 31.0525 114.92 31.0075 114.695 30.9175C114.473 30.825 114.283 30.6937 114.125 30.5237C113.968 30.3537 113.847 30.1487 113.762 29.9087C113.679 29.6687 113.638 29.3987 113.638 29.0987C113.638 28.8012 113.679 28.5325 113.762 28.2925C113.847 28.05 113.968 27.8437 114.125 27.6737C114.283 27.5037 114.473 27.3725 114.695 27.28C114.92 27.1875 115.173 27.1412 115.453 27.1412ZM115.453 30.5312C115.828 30.5312 116.108 30.4062 116.293 30.1562C116.478 29.9037 116.57 29.5525 116.57 29.1025C116.57 28.65 116.478 28.2975 116.293 28.045C116.108 27.7925 115.828 27.6662 115.453 27.6662C115.263 27.6662 115.097 27.6987 114.954 27.7637C114.814 27.8287 114.697 27.9225 114.602 28.045C114.509 28.1675 114.439 28.3187 114.392 28.4987C114.347 28.6762 114.324 28.8775 114.324 29.1025C114.324 29.5525 114.417 29.9037 114.602 30.1562C114.789 30.4062 115.073 30.5312 115.453 30.5312ZM121.327 31H120.66V27.7262H119.46C119.43 28.2087 119.385 28.6262 119.325 28.9787C119.265 29.3287 119.192 29.6275 119.107 29.875C119.025 30.12 118.931 30.32 118.826 30.475C118.723 30.6275 118.615 30.7462 118.5 30.8312C118.387 30.9162 118.27 30.9737 118.147 31.0038C118.027 31.0338 117.907 31.0488 117.787 31.0488C117.575 31.0488 117.468 31.015 117.468 30.9475V30.5237H117.663C117.748 30.5237 117.835 30.5087 117.922 30.4787C118.01 30.4487 118.095 30.3912 118.177 30.3062C118.262 30.2212 118.343 30.1025 118.421 29.95C118.498 29.795 118.568 29.595 118.631 29.35C118.696 29.1025 118.751 28.8037 118.796 28.4537C118.843 28.1012 118.88 27.6837 118.905 27.2012H121.327V31ZM123.843 30.5125C123.978 30.5125 124.094 30.4962 124.192 30.4637C124.292 30.4287 124.374 30.3812 124.439 30.3212C124.504 30.2587 124.553 30.1862 124.585 30.1037C124.618 30.0212 124.634 29.9312 124.634 29.8337C124.634 29.7437 124.62 29.66 124.593 29.5825C124.565 29.5025 124.519 29.4325 124.454 29.3725C124.392 29.3125 124.309 29.265 124.207 29.23C124.104 29.195 123.979 29.1775 123.832 29.1775H123.025V30.5125H123.843ZM123.832 28.69C124.094 28.69 124.314 28.7212 124.492 28.7837C124.672 28.8462 124.815 28.93 124.923 29.035C125.033 29.14 125.112 29.2612 125.159 29.3987C125.207 29.5362 125.23 29.6787 125.23 29.8262C125.23 29.9962 125.2 30.1537 125.14 30.2987C125.08 30.4412 124.992 30.565 124.874 30.67C124.757 30.7725 124.612 30.8537 124.439 30.9137C124.267 30.9712 124.068 31 123.843 31H122.384V27.2012H123.025V28.69H123.832ZM129.138 27.2012V31H128.467V29.2225H126.644V31H125.973V27.2012H126.644V28.7162H128.467V27.2012H129.138ZM131.658 30.5125C131.793 30.5125 131.909 30.4962 132.007 30.4637C132.107 30.4287 132.189 30.3812 132.254 30.3212C132.319 30.2587 132.368 30.1862 132.4 30.1037C132.433 30.0212 132.449 29.9312 132.449 29.8337C132.449 29.7437 132.435 29.66 132.408 29.5825C132.38 29.5025 132.334 29.4325 132.269 29.3725C132.207 29.3125 132.124 29.265 132.022 29.23C131.919 29.195 131.794 29.1775 131.647 29.1775H130.837V30.5125H131.658ZM131.647 28.69C131.909 28.69 132.129 28.7212 132.307 28.7837C132.487 28.8462 132.63 28.93 132.738 29.035C132.848 29.14 132.927 29.2612 132.974 29.3987C133.022 29.5362 133.045 29.6787 133.045 29.8262C133.045 29.9962 133.015 30.1537 132.955 30.2987C132.895 30.4412 132.807 30.565 132.689 30.67C132.572 30.7725 132.427 30.8537 132.254 30.9137C132.082 30.9712 131.883 31 131.658 31H130.199V27.2012H130.837V28.69H131.647ZM134.549 27.2012V31H133.882V27.2012H134.549ZM138.732 31H138.091C138.036 31 137.992 30.9862 137.959 30.9587C137.929 30.9287 137.904 30.8962 137.884 30.8612L136.928 29.3725C136.918 29.4075 136.907 29.4425 136.894 29.4775C136.884 29.51 136.869 29.54 136.849 29.5675L135.964 30.8612C135.939 30.8962 135.912 30.9287 135.882 30.9587C135.854 30.9862 135.816 31 135.766 31H135.169L136.501 29.05L135.222 27.2012H135.863C135.918 27.2012 135.958 27.21 135.983 27.2275C136.008 27.245 136.031 27.27 136.051 27.3025L136.984 28.7275C137.004 28.655 137.036 28.585 137.078 28.5175L137.896 27.3175C137.918 27.2825 137.942 27.255 137.967 27.235C137.994 27.2125 138.027 27.2012 138.064 27.2012H138.679L137.401 29.0162L138.732 31Z" fill="black"/>
</svg>
