<svg version="1" xmlns="http://www.w3.org/2000/svg" width="400" height="400" viewBox="0 0 300.000000 300.000000"><path d="M0 56c0 34.1.4 56 1 56 .5 0 .7.7.4 1.5-1.1 2.9.6 6.6 3.5 7.6 2.2.8 2.8 1.5 2.4 3-.4 1.5 0 1.9 1.8 1.9 2.2.1 2.3.2.6 1.4-1.4 1.1-1.6 1.9-.7 4 .8 2.3.7 2.6-1 2.6-1.1 0-2-.6-2-1.3 0-.9-.2-.9-.9.1-.4.7-1.8 1.4-3 1.5-1.9.1-2.1.7-2 4.9.1 2.7.7 4.9 1.5 5.2 1.7.7 6.4-1.6 6.4-3.1 0-.6.4-1.4.9-1.7.4-.3.6.6.3 1.9-.2 1.4 0 2.5.7 2.5.5 0 .8-.6.5-1.4-.5-1.2 0-1.2 3-.2 2 .7 3.9 1.5 4.3 1.9 1 1 1.4 4.7.5 4.5-.4-.1-1.8.2-3.1.6-1.3.5-2.7.4-3.3-.2-.6-.6-1.7-.8-2.4-.5-.8.3-1.4 0-1.4-.6s.5-1.1 1-1.1c.6 0 1-.5 1-1.1 0-.8-.4-.8-1.4 0-.7.6-2.2.9-3.2.5-1.6-.5-1.6-.4-.4.5 1.4 1 .7 1.5-1.3 1.2-.4-.1-.7.6-.5 1.5.2.9-.3 1.9-1 2.1-.7.3-1-.1-.6-1.1.3-.9.1-1.6-.5-1.6-.7 0-1.1 21.8-1.1 75.5V300h300v-44.5c-.1-24.8-.5-44.5-1-44.5s-1.2-.9-1.5-2c-.5-1.6-1.2-1.9-2.8-1.4-2.4.8-4.8 3.4-4.4 4.8.2.5 1.8 1.5 3.7 2.1 1.8.6 3.6 2 4 3.1 1.5 4-5.5 20.9-8.7 20.9-.6 0-1.4.3-1.8.6-.7.8-4.5 0-4.5-1 0-.3-1.4-1.2-3-2-2.3-1-3.8-1-5.8-.3-7.9 3.1-13.3 2.6-12.5-1.1.5-2.2.5-2.2-1.1-.2-1 1.1-1.5 1.4-1.1.7.3-.6.2-1.2-.3-1.2-2.2 0-2.2-3.4-.1-5.7 1.3-1.2 1.7-2.3 1.1-2.3-.7 0-1.2.4-1.2 1 0 .5-.5 1-1.1 1-.7 0-.9-.9-.6-2.1.4-1.5.2-1.9-.8-1.5-.9.3-1.2 0-.8-1 .4-1.2 0-1.4-2.3-.8-1.6.4-3 1.1-3.2 1.6-.9 2.3-2.1-.1-4.6-9.5-1.5-5.6-3.2-11.8-3.8-13.7-1.7-5.4-6.8-16-7.7-16-.4 0-3.5-2.4-7-5.4-6.9-6-22.3-14.1-34.6-18.2-10.3-3.5-11.1-4.1-8.4-6.5 1.2-1.1 2.7-1.9 3.3-2 .6 0-.8-.8-3.1-1.7-2.3-.9-4.4-2-4.8-2.4-.9-.8 3.2-.4 5.8.5 3.7 1.5 4.7 1.6 4.7.7 0-.6-.8-1-1.7-1.1-2.6-.1-10.2-3.7-8-3.8 1-.1 1.5-.6 1.2-1.2-1.5-2.4-13.8-.5-28 4.3-15.3 5.2-16.3 5.4-18.9 3.5-1.7-1.2-1.7-1.6-.2-5 .8-2.1 1.5-3.8 1.5-4-.1-.8 1.7-4.6 3.3-7 1.1-1.5 1.6-2.7 1.2-2.7-.3 0-.1-.7.6-1.5 1-1.2 1-1.8 0-3-.7-.8-.9-1.5-.4-1.5s.2-.5-.6-1c-2.2-1.5 3.6-6.3 6.8-5.5 2.5.6 6-1.9 4.2-3-.5-.3-1-.1-1 .4 0 .6-1 1.1-2.2 1.1-2.1-.1-2.1-.2-.5-1.1.9-.6 1.5-1.5 1.1-2.1-.4-.7-.9-.6-1.5.3-.6 1-1 .7-1.7-1.1-.8-2.1-.6-2.6 1.2-3.1 1.9-.6 1.9-.7.3-1.4-2.4-1-4.2-5.2-4.2-9.5 0-3.3.2-3.5 3-3.2 1.7.2 6.5.4 10.7.5 7.2.1 7.9 0 11.5-2.9 5.4-4.4 7.6-8.7 8.2-16.3.6-6.3.7-6.6 3.1-6.3 1.4.1 3.5.2 4.8.2 1.5 0 2.1.4 1.6 1.2-.5.8.1.9 2.2.4l2.8-.7-1.9 2.1c-1.9 2.1-1.9 2.1.5 1.2 1.8-.7 2.9-.6 3.8.5.8.7 2.2 1.1 3.1.8 1-.3 3.1-.1 4.7.5l2.8 1.1-1.9-2.2c-2-2.2-2-2.2.2-1.7 2.1.6 2.2.4 1.1-1.5-.6-1.2-1.1-2.4-1-2.7.9-2.9-3.8-5.5-5.3-2.9-.4.5-1.2.8-1.8.6-.7-.2-2.2 0-3.4.4-2.7 1-2.9.6-.8-1.5.9-.9 1.1-1.7.5-2.1-.5-.3-1-.2-1 .2 0 .5-1.7.8-3.7.7-2.1-.1-4.3.3-5 .8-.6.5-4.4 1.1-8.5 1.3-9.7.4-9.5.4-8 1.4.9.6.5.8-1.5.8-7.6.1-17.9 4.9-21.1 9.9-1.3 2-3.6 8.5-5.1 14.4-2.4 9.5-2.6 11.3-1.6 14.4.7 1.9 1.1 3.7.8 3.9-.8.9-2 10.7-1.3 10.7.5 0 .7 1.1.6 2.5 0 1.4-.5 2.5-.9 2.5-.5 0-.5.4-.2 1 .3.5-.1 1-.9 1s-1.8-.5-2.1-1.1c-.5-.7-1.6-.2-3.1 1.2-1.3 1.2-2.4 1.8-2.4 1.2 0-.6-.9-.9-2-.6-1.6.4-1.9.2-1.4-1.3.6-1.6.4-1.5-1.3.3-2.1 2.4-3.9 3.1-2.7 1.1.5-.8.2-.9-.9-.5-.9.3-1.6.3-1.6-.1.3-1.9-.2-3.3-1-2.8-.5.3-1.2-.1-1.5-1-.3-.8-.2-1.2.4-.9.6.3 1 .2 1-.3s-1.6-1.7-3.5-2.8c-1.9-1-3.5-2.2-3.5-2.7 0-.4.6-.5 1.3-.1.6.4.2-.4-1.1-1.8-1.5-1.7-2-2.8-1.3-3.3.6-.3 1.1-1.1 1.1-1.6 0-.6-.4-.8-.9-.4-.5.3-1.2.1-1.5-.4-.4-.5.3-1.2 1.4-1.6 1.1-.3 2-1.3 2-2.1s.5-1.4 1-1.4c.6 0 1-.7 1-1.5 0-1.8-1.6-2-2.3-.3-.4 1-.6 1-.6 0-.1-.8.8-1.6 1.9-1.9 1.7-.5 1.8-.7.4-2-1.1-1.1-1.2-1.9-.5-2.6.8-.8 1.5-.7 2.4.2 1 1 .8 1.1-.8.6-1.6-.6-1.7-.5-.5.4 2.3 1.6 3 1.3 3.1-1.2 0-1.2.3-1.6.6-1 .7 2 2.3 1.5 1.7-.5-.5-1.4-.4-1.4.4-.3.9 1.2 1.3 1.2 2.6.2.9-.7 2.2-1.1 3-.8.8.3 2.2-.3 3.1-1.3 1.3-1.4 1.3-1.9.3-2.3-1-.4-1-.8.2-1.6.8-.6 1.1-1.1.7-1.1-.4 0-.3-.9.3-2 1.4-2.7 3.2-1.5 2.4 1.6-.5 1.8-.2 2.4 1.1 2.4 1.4 0 1.6-.8 1.3-4.5-.2-2.5.1-4.5.5-4.5.5 0 .7-.7.3-1.5-.3-.8-.1-1.5.5-1.5.5 0 1.4-1 1.9-2.3.6-1.2 1.6-3 2.2-4 1.1-1.5.8-2.2-2.4-5.3-3.7-3.5-4.7-6.1-2.9-8 .5-.5 1.2-2 1.6-3.4.5-1.9.4-2.2-.4-1-.9 1.2-1.1.7-.9-2 .1-1.9.5-4.3 1-5.2 1.3-2.7-.2-7.5-2.8-8.7-2.1-.9-2.4-.8-2.4 1 0 1.2-.5 1.9-1.2 1.6-1.6-.5-1.2-7.8.5-9.2.6-.6 1.2-2.1 1.1-3.5 0-1.4.4-3.1.9-3.8.6-.8.6-1.2-.2-1.2-.6 0-1-.8-.8-1.8.4-2.9-1.7-2.6-3.5.4-2.1 3.7-2.2 4.4-.2 4.4 1.1 0 1.4.6.9 2.1-.4 1.2-.8 2.7-.9 3.3-.6 3.2-1.9 5.6-2.7 5-.5-.3-.7-1-.4-1.5.4-.5.1-.9-.5-.9s-.8-.5-.4-1.1c.5-.8.9-.8 1.4.1.5.9.9.9 1.4.1.4-.6.2-1.1-.4-1.1-.6 0-.8-.4-.5-1 .3-.5 0-.7-.7-.5-.8.3-1.4-.2-1.5-1.4-.1-1.4.3-1.8 1.5-1.4 1.5.4 1.5.3.2-.6-.8-.6-1.1-1.1-.7-1.1 1.4 0-1.3-4-2.8-4-.7 0-2.9 1.3-4.7 3-4 3.7-3.2 3.9 1.9.4 2.6-1.7 3.9-2.1 4.2-1.3.2.7-.4 1.8-1.5 2.6-1.2.9-1.4 1.3-.4 1.3 1.2 0 1.1.3-.2 1.6-1.2 1.2-2 1.4-3.6.5-1.6-.8-1.9-.7-1.8.6 0 .9-.5 1.8-1.3 2.1-.8.3-1.1 0-.7-.7.4-.6.2-1.1-.5-1.1-.8 0-.8-.4-.2-1.3.5-.6.7-2.3.3-3.7-.8-2.5-.8-2.4-1.5.7-.4 1.8-1.2 3.3-1.7 3.3s-.6.6-.2 1.2c.5 1 .4 1-.6.1-.7-.6-1.9-.9-2.8-.6-1.1.5-1.3.3-.7-.7.6-1 .2-1.2-1.6-.7l-2.4.6L101 32c2.1-1.6 2.2-2 .7-2-3.1 0-.9-1.9 3.1-2.6 3.7-.7 9.2-3 9.2-4 0-.2-1 0-2.1.7-1.2.6-4.4 1.2-7.1 1.3-3.9.2-4.8 0-4.3-1.2.4-1.1-.2-1.3-2.5-1-2.2.3-3.1 0-3.6-1.4-.3-1-.2-2.2.1-2.8.3-.5.2-1-.4-1-.5 0-1.5.8-2 1.7-.8 1.4-.9 1.1-.5-1.5.7-3.7-.4-4.1-3.1-1.2-1 1.1-2.6 2-3.5 2-2.7 0-3.8 8.7-1.3 10.6 1.1.9 1.3 1.3.4 1.2-.7-.2-1.6.3-1.9 1.1-.3.8 0 1.1.7.7.6-.4 1.1-.2 1.1.3 0 .6-.9 1.1-1.9 1.1-2.2 0-3.7-3-1.9-4.1.9-.6.9-1.3.1-3.1l-1.2-2.3V27l-.1 2.5-1.5-2.9c-.8-1.5-1.5-3.4-1.5-4.1 0-.7-.7-1.6-1.6-1.9-.9-.3-1.4-1.2-1.1-2 .3-.8-.2-1.6-1.3-1.9-1.5-.4-2.2.3-3.2 2.9-1.1 3.1-1.4 3.3-2.8 1.8-1.3-1.4-1.3-1.6.3-2.8.9-.7 1.7-1.8 1.7-2.5 0-.6.5-1.1 1.1-1.1.8 0 .9-.4 0-1.3-1.4-1.8-.2-3 1.6-1.5.7.6 1.7.7 2.1.3.4-.4.1-1-.5-1.2-1-.4-1-1 .1-3.1 1.3-2.7 1.1-5.6-.4-4.7-.4.3-.6-.4-.3-1.5.5-1.9-.3-1.9-35.6-2H0v56zm71.4-35.2c.3.5-.1.9-.9.9s-1.2-.4-.9-.9c.3-.4.7-.8.9-.8.2 0 .6.4.9.8zM87 22.5c0 .8-.4 1.5-1 1.5-.5 0-1-.7-1-1.5s.5-1.5 1-1.5c.6 0 1 .7 1 1.5zm-12.5 4.1c.2 2.5 0 3.3-.6 2.3-.9-1.5-1.3-7.6-.3-6.7.3.3.7 2.3.9 4.4zm-19.2-1.2c1.2.9 1.4 1.6.8 2.1-1.6.9-1.3 3.5.3 3.5.7 0 1.6.9 1.9 2 .4 1.7.2 1.8-1.5.9-1.1-.6-2.3-1.9-2.5-3-.3-1-.9-1.7-1.3-1.4-.9.5-6.7-2.2-7.5-3.6-.4-.5-.1-.9.4-.9.6 0 1.1.5 1.1 1.1 0 .5.4.8 1 .4.5-.3 1.8 0 2.9.7 1.7 1 2.3 1 3.3 0 1.1-1.1 1-1.3-.1-1-.7.2-1.6-.3-1.8-1-.6-1.6.7-1.5 3 .2zm6.3.6c.5-.1 1 .3 1.2.9.2.6 0 1.1-.5 1.1-1.2 0-3.3-2.2-3.3-3.5 0-.5.4-.4.9.3.4.8 1.2 1.3 1.7 1.2zM47 31c.9 1.8.4 3-1.2 3-.5 0-.7-.4-.4-.9.3-.5-.1-1.4-1-2.2-.8-.7-2-2.1-2.5-3.1-1-1.9-1-1.9 1.6-.2 1.4.9 3 2.5 3.5 3.4zm42.6-1.2c-1.7 1.6-1.8 1.6-.5-.5.7-1.2 1.5-2 1.8-1.7.3.2-.3 1.2-1.3 2.2zM60.4 32c-.6.5-2.4-2.1-2.4-3.4 0-.6.6-.1 1.4 1 .8 1 1.2 2.1 1 2.4zM99 29c0 .5-.4 1-1 1-.5 0-1-.5-1-1 0-.6.5-1 1-1 .6 0 1 .4 1 1zm-45.2 4.4c2.4 1.5 4.2 3 3.9 3.2-.7.8-9.7-5.6-9.7-6.9 0-.9.2-.9.8-.1.4.6 2.7 2.3 5 3.8zm-10.4.4c.3.5-.4.8-1.6.7-1.2-.1-2.2-.9-2.4-1.8-.2-1.3.2-1.5 1.6-.7 1.1.6 2.1 1.4 2.4 1.8zm20.6.7c0 .5-.5.3-1-.5s-1-2-1-2.5c0-.6.5-.3 1 .5s1 1.9 1 2.5zm5 0c0 .8-.2 1.5-.4 1.5s-.6-.7-1-1.5c-.3-.8-.1-1.5.4-1.5.6 0 1 .7 1 1.5zm-34.6.4c.4.5-.3.7-1.4.4-2.3-.6-2.6-1.3-.6-1.3.8 0 1.7.4 2 .9zm28.1 4.9c-.6.7-3.5-1.8-3.5-3.1 0-.5.9-.2 2 .8s1.8 2 1.5 2.3zm52.5.5c-.8.9-1 .8-.5-.6.4-1 .2-1.7-.5-1.7-.6 0-.8-.5-.4-1.1.5-.8 1-.6 1.6.6.7 1.1.6 2.1-.2 2.8zm-47.7-.1c.6 2.2.5 2.2-.8.4-1.7-2.2-2-4-.6-3.2.5.3 1.1 1.6 1.4 2.8zm36.3-2.5c-1 1.1-3.7 1.2-3 .2.3-.5 1.2-.9 2.1-.9.9 0 1.3.3.9.7zM31 43.4c0 .5-.9.1-2-.9s-2-2.2-2-2.6c0-.5.9-.1 2 .8 1.1 1 2 2.2 2 2.7zm81.8-1.1c1.8.1 3.2.5 3.2.9 0 1.2-3.7 2.8-4.5 2-.3-.4-1.3.2-2.1 1.2-1.3 1.8-1.4 1.6-1.2-2.2.1-2.4.4-3.8.8-3.2.4.6 2.1 1.2 3.8 1.3zm-13.8 8c0 .5-.6.7-1.2.4-.7-.2-2.1.2-3 1.1-2 1.6-2.5.3-.7-1.5 1.3-1.3 4.9-1.3 4.9 0zm29 .9c0 1.3-2.3.5-2.8-1-.2-.7.2-1 1.2-.6.9.3 1.6 1.1 1.6 1.6zm-56 1.3c0 .8-.2 1.5-.4 1.5s-.6-.7-1-1.5c-.3-.8-.1-1.5.4-1.5.6 0 1 .7 1 1.5zm39.5-.5c-.3.5-1.1 1-1.6 1-.6 0-.7-.5-.4-1 .3-.6 1.1-1 1.6-1 .6 0 .7.4.4 1zm-10.5.5c0 .3-.8 1.4-1.7 2.5-1 1.1-1.8 2.8-1.8 3.7 0 .9-.6 1.8-1.4 2.1-1 .3-1.1-.2-.6-1.8.5-1.6.4-2-.5-1.5-.7.4-.9 1.8-.5 3.4l.6 2.6-1.6-2.3c-2.1-2.9-1.3-6.5 1.7-8 2.4-1.1 5.8-1.6 5.8-.7zm14 2.6c0 .9-3.3 2.9-4.7 2.9-.4 0 0-.7 1.1-1.5 1-.7 1.5-1.8 1.1-2.4-.3-.7 0-.8.9-.5.9.3 1.6 1 1.6 1.5zm11.7 2.1c-.3.7-.5.2-.5-1.2s.2-1.9.5-1.3c.2.7.2 1.9 0 2.5zm-53.8 1.2c2.3 2.4 2.3 2.5.2 1.9-1.9-.5-2-.3-.9 1.9.7 1.3 2.5 3.7 4.1 5.3 1.5 1.7 2.5 3.5 2.3 4.1-.4 1 1.2 2.3 6.9 5.5 2.9 1.7 3 1.6 5.2-1l2.1-2.6-.5 2.8c-.4 1.8 0 3.4 1.1 4.6.9 1 1.3 2 1 2.4-.8.8 1.8.3 3.6-.7 1.2-.7 1.3-.6.3.4-.8.8-.9 1.8-.4 2.4.5.6 1.7 4 2.6 7.5 1.6 6.4 3 8.6 5.3 8.6.6 0 1.2.3 1.2.7v2.3c0 .8-.4 1.5-1 1.5-.5 0-.7-.7-.4-1.5.5-1.1.2-1.3-1-.9-.8.3-1.5.9-1.4 1.2 0 .4 0 1.2-.1 1.9-.1 1.7-3.1.4-3.1-1.3 0-.8-.6-1.1-1.6-.7-1.1.4-1.5.1-1.3-1.3.4-2.2-5-12-8.6-15.6-4.2-4.3-14.6-6.1-21.2-3.8-2.6.9-2.7.9-.9-.5 1.2-.9 1.5-1.5.7-1.5s-1.1-.6-.7-1.6c.6-1.5-1.7-4.8-2.7-3.8-.3.3-.8.1-1.2-.5-1.2-2 1.7-1.1 4.7 1.4 2.1 1.8 2.5 2.5 1.3 2.5-.9 0-1.3.5-1 1 .7 1.1 6.5 1 6.5 0 0-.4-1-1.2-2.3-1.9-2-1-5.4-5.1-4.3-5.1.2 0 2 1.3 4.1 3 2.1 1.6 4.2 3 4.6 3 .5 0-.5-1.4-2.3-3-1.7-1.7-2.7-3-2.3-3 .5 0 .1-.6-.9-1.3-1.7-1.3-1.8-1.4-.2-2 1-.4 1.5-.3 1.1.3-.3.6.1.7 1 .4 1.3-.5.5-1.7-3.7-5.5-5.2-4.8-6-6.8-1.1-2.9 1.4 1.1 3 2 3.6 2 .6 0 .2-.9-.8-2s-1.5-2-1-2c.4 0 .2-.7-.6-1.6-1-1.3-1-1.7.2-2.5.8-.5 1.4-.9 1.5-.9 0 0 1.1 1.1 2.3 2.4zm26.2 2.9c-1 .9-1.1.8-.5-.6.3-1 .9-1.5 1.2-1.2.3.3 0 1.1-.7 1.8zm15.9-.8c-.6.8-.8 2-.4 2.7.5.9.2.8-1-.1-1.7-1.4-1.7-1.5 0-2.8 2.3-1.7 2.9-1.6 1.4.2zm-17.1 6.4c-.8 1.7-1.7 3.1-2.1 3.1-1.3 0-.4-4.5 1.2-5.7 2.2-1.6 2.4-.9.9 2.6zm3.5-1.5c-.3.9-1 1.6-1.5 1.6-.6 0-.5-.9.1-2.1 1.3-2.4 2.4-2 1.4.5zm13.3 1.8c-.3.8-.6.5-.6-.6-.1-1.1.2-1.7.5-1.3.3.3.4 1.2.1 1.9zm-67-.6c-.3.3-1.2.4-1.9.1-.8-.3-.5-.6.6-.6 1.1-.1 1.7.2 1.3.5zM93 69.2c0 .6-.6.5-1.5-.2-.8-.7-1.5-1.4-1.5-1.6 0-.2.7-.1 1.5.2.8.4 1.5 1.1 1.5 1.6zm8.9.4c.6-.4 1.1-.3 1.1.2 0 .6-.7 1.2-1.5 1.6-.8.3-1.5.1-1.5-.5s-.4-.7-1-.4c-.6.3-.7-.1-.3-1 .4-1.2.8-1.3 1.3-.5.4.7 1.3.9 1.9.6zm29.1-.2c0 .3-.4.8-1 1.1-.5.3-1 .1-1-.4 0-.6.5-1.1 1-1.1.6 0 1 .2 1 .4zM49 71c-.8.5-2.4 1-3.5 1-1.7 0-1.7-.2-.5-1 .8-.5 2.4-1 3.5-1 1.7 0 1.7.2.5 1zm13.7.6c-.3.3-1.2.4-1.9.1-.8-.3-.5-.6.6-.6 1.1-.1 1.7.2 1.3.5zm72.3 1.9c0 .8-.2 1.5-.4 1.5s-.6-.7-1-1.5c-.3-.8-.1-1.5.4-1.5.6 0 1 .7 1 1.5zm-84.1 1.1c.6.6-.1 1.1-2.8 1.9-1.6.5-2.1.4-1.7-.4.4-.6 0-1.1-.9-1.1s-1.3-.5-1-1c.5-.9 5.2-.4 6.4.6zm51.4.1c-.4 1-.9 1.1-1.9.2-1.8-1.5-1.8-1.5.5-1.5 1.1 0 1.7.5 1.4 1.3zm-8.6 4.5c-.3.8-.6.5-.6-.6-.1-1.1.2-1.7.5-1.3.3.3.4 1.2.1 1.9zm-30.3.3c-.4.8-1.1 1.2-1.6.8-.6-.3-4-.5-7.5-.5-3.9.1-6.1-.3-5.8-.8.3-.6 4-1 8-1 6.2 0 7.3.3 6.9 1.5zM47 80c0 1.3-1.1 1.3-3 0-1.2-.8-1.1-1 .8-1 1.2 0 2.2.4 2.2 1zm13 1.4c0 .2-1.3.6-3 .8-1.6.3-3 .1-3-.4 0-.4 1.4-.8 3-.8 1.7 0 3 .2 3 .4zm-13 1c0 .2-1.1.6-2.5.8-1.3.3-2.2.1-1.9-.3.5-.9 4.4-1.3 4.4-.5zm3.3 1.1c-.3.9-.8 1.4-1 1.1-.3-.3-.2-.9.2-1.5.9-1.6 1.5-1.3.8.4zM168.8 86c-.7 1.1-1.6 2-2 2-.5 0-.8.7-.8 1.5s-.7 1.5-1.5 1.5c-2.1 0-1.9-.6 1.6-4 3.7-3.5 4.4-3.8 2.7-1zM129 86c0 .5-.8 1-1.7 1-1.5 0-1.6-.2-.3-1 1.9-1.2 2-1.2 2 0zm22 3.4c0 1.1-1.9 1.5-2.5.6-.3-.5.1-1 .9-1 .9 0 1.6.2 1.6.4zm3 1.4c0 .5 1 1.3 2.2 1.9 2 .9 1.8 1-1.4 1.1-3.1.1-3.5-.1-3.1-1.8.5-2 2.3-2.8 2.3-1.2zM49 96.6c0 .8.5 1.4 1 1.4.6 0 1 .5 1 1.1 0 1.6 6.5 7.6 10.1 9.5 2.8 1.4 12 2.1 16.4 1.2 1.1-.3 3.9-1.4 6.1-2.6 3.6-1.8 4.4-1.9 6-.8 1.6 1.2 1.7 1.8.6 4-1.6 3.5-1.5 3.7.6 2.9 1.4-.5 1.5-.3.5.7-.9 1-1.5 1-2.6.1-1.2-.9-1.4-.7-1.3 1.1.1 1.8.7 2.2 2.6 2 3.2-.3 1.5 1.3-2.2 2.2-2.1.5-3 .2-3.8-1.3-.7-1.4-.6-2.1.3-2.4.6-.2 1-.7.7-1-.4-.5-16.3-1.7-23.2-1.8-1.5 0-3-.4-3.3-.9-.4-.6-1.8-1-3.2-1-2.2 0-2.4-.3-1.9-2.5.6-2.4.4-2.5-3.5-2.5-3.7 0-4-.2-2.8-1.6 1.8-2.2 2-4.2.2-4.8-.7-.3-1.2-.2-.9.3.3.5 0 1.1-.7 1.4-.8.3-1.2-.6-1.2-2.7 0-2.5.4-3.1 2.2-3.2 1.4-.1 2.3.4 2.3 1.2zm32 1.9c-.7.8-1.8 1.5-2.4 1.5-.6 0-.2-.7.8-1.5 2.5-1.9 3.2-1.9 1.6 0zm-28 8.9c0 .3-.4.8-1 1.1-.5.3-1 .1-1-.4 0-.6.5-1.1 1-1.1.6 0 1 .2 1 .4zm-3.3 1.2c-.3.3-1.2.4-1.9.1-.8-.3-.5-.6.6-.6 1.1-.1 1.7.2 1.3.5zm92.8 7.4c.3.6-.1.7-.9.4-1.8-.7-2.1-1.4-.7-1.4.6 0 1.3.4 1.6 1zM89 121c0 .5-.6 1-1.4 1-.8 0-1.6.5-1.8 1.1-.2.7-1.1 1-1.8.7-1.1-.3-.6-1 1.5-2.1 3.6-2 3.5-1.9 3.5-.7zm-8.5 3c-.3.5-1.6 1-2.8 1-1.8 0-1.9-.2-.7-1 2-1.3 4.3-1.3 3.5 0zm7 2c1.1.5 1.4.9.8.9-2.4.2-1.3 1.9 1.5 2.4 1.6.4 3.1.1 3.7-.7.9-1.1 1.8-1 5.1.8 4 2.1 4.4 3.1 2.9 6.8-.6 1.4-.2 1.8 1.5 1.8 1.1 0 1.9.4 1.5 1-.3.5.5 1.6 1.9 2.5 1.4.9 4.3 4.1 6.6 7.2 4.4 5.8 4.4 7.6-.3 7.8-7.5.4-8.7.6-8.7 1.6 0 .7.9.9 2.1.6 1.7-.4 1.8-.3.8.9-.7.9-1.6 1.1-2.3.5-1.4-1.1-4.6-1-4.6.1 0 .9-5.7.4-6.8-.6-.3-.3-1.1-.1-1.9.6-.9.7-1.7.8-2.4.1-.7-.7 0-1.3 2.3-1.8 1.8-.4 3.8-.6 4.3-.5 1.8.5 5.9 0 6.7-.8.4-.4-5.3-.7-12.6-.7-10 0-13.2-.3-12.9-1.2.3-.9-1-1.1-4.9-.8l-5.3.4 4-1.6c4.9-1.9 8.8-2.4 9.5-1.4.8 1.3 11.9 2.1 12.6.9.4-.7.9-.6 1.4.2.6 1 1.3.9 3-.3 1.4-1 1.8-1.7 1-2.2-1.8-1.1-22.4-1.3-23.1-.2-.4.5-2.5 1.2-4.8 1.4-2.3.2-6.2 1-8.8 1.8-2.6.8-4.9 1.3-5.1 1-.5-.4 12.9-4.5 15-4.5.8 0 1.5-.7 1.5-1.5 0-1-.7-1.3-2.4-.9-2.4.6-3.3-1-1-2 .8-.4.7-.5-.3-.4-.8.1-2.2-.2-3-.5-.8-.3-2.4-.8-3.5-1-1.5-.2-1-.6 1.8-1.5 4.6-1.3 9-.1 8.1 2.3-.5 1.3.2 1.5 4.2 1.4 2.7-.1 5.9-.6 7.2-1 1.6-.6 2.1-.6 1.6.2-.4.7 1.1.9 5.2.4 6.8-.9 6.8-.9 6.1-3-.4-.9-1.8-1.5-3.5-1.5-1.6 0-3.6-.8-4.3-1.7-.8-.9-.9-1.4-.3-1 .6.3 2.8.1 5-.6l3.9-1.2-3.5-.5c-2.1-.4-3.4-1.1-3.2-1.9.1-.7-.2-1-.8-.6-.6.3-.8 1-.5 1.5.3.5 0 1.2-.6 1.6-.8.4-.9.3-.5-.4s.2-1.2-.4-1.2c-.6 0-.8-.5-.5-1 1.4-2.3-5.2.1-6.7 2.4-.6.8-.8.7-.8-.1 0-.6.5-1.5 1.2-1.9.8-.5.6-1-.8-1.5-1.6-.7-1.6-.8.6-.7 6.3.3 6.9 0 5.7-2.7-.7-1.4-1.5-2.5-1.9-2.5-.5 0-.8-.5-.8-1 0-1.2.8-1.2 3.5 0zm-4.1 3.5c-.4.8-1 1.2-1.5.9-1.1-.6-.2-2.4 1.1-2.4.5 0 .7.7.4 1.5zm-68.9.5c-.3.5-1.1 1-1.6 1-.6 0-.7-.5-.4-1 .3-.6 1.1-1 1.6-1 .6 0 .7.4.4 1zm43.5 3c-.8.5-2.4.9-3.5.9-1.6-.1-1.6-.2.5-.9 3.5-1.1 4.8-1.1 3 0zm16.4.9c.3.5-.3 1.1-1.3 1.4-1.4.3-1.8.1-1.4-.9.6-1.6 1.9-1.8 2.7-.5zm-2.4 4.7c0 .2-.9.4-2.1.4-1.1 0-1.8-.4-1.4-1 .5-.8 3.5-.3 3.5.6zm-58 2.5c0 .6-.4.7-1 .4-.5-.3-1-1.1-1-1.6 0-.6.5-.7 1-.4.6.3 1 1.1 1 1.6zm50.7 4.5c-.3.3-1.2.4-1.9.1-.8-.3-.5-.6.6-.6 1.1-.1 1.7.2 1.3.5zm93.1 5.1c-1 .2-2.6.2-3.5 0-1-.3-.2-.5 1.7-.5s2.7.2 1.8.5zm-9.9 2.9c-.6.8-1.5 1.2-1.8.8-.3-.4 0-.9.7-1.1.6-.3.9-1 .6-1.5-.4-.7-.2-.8.5-.4.9.6.9 1.1 0 2.2zm7.5-.7c.4.5-.3.7-1.4.4-2.3-.6-2.6-1.3-.6-1.3.8 0 1.7.4 2 .9zm-11.4 2.2c0 1.8-.2 1.9-1.5.9-1.5-1.2-1.2-3 .6-3 .5 0 .9 1 .9 2.1zm8.5 1.7c-.3.3-1.1 0-1.8-.7-.9-1-.8-1.1.6-.5 1 .3 1.5.9 1.2 1.2zm-81 1.7c-1.6.7-3.2 1.1-3.5.9-.7-.8 2.4-2.4 4.5-2.3 1.5 0 1.3.4-1 1.4zM87 160c0 .5-1 1-2.2.9-2.2 0-2.2-.1-.3-.9 1.1-.5 2.1-.9 2.3-.9.1-.1.2.3.2.9zm27 1.5c-.7.8-1.6 1.5-2.1 1.5s-.1-.9.8-2 1.9-1.7 2.1-1.5c.3.3-.1 1.1-.8 2zm-98 .5c0 .5-.4 1-1 1-.5 0-1-.5-1-1 0-.6.5-1 1-1 .6 0 1 .4 1 1zm79.4 1.5c-.4.8-1.2 1.5-2 1.5-1.7 0-1.8-1.7-.1-2.3 2.2-.9 2.7-.7 2.1.8zM9 163.4c0 .2-.7.6-1.5 1-.8.3-1.5.1-1.5-.4 0-.6.7-1 1.5-1s1.5.2 1.5.4zm4 0c0 .3-.4.8-1 1.1-.5.3-1 .1-1-.4 0-.6.5-1.1 1-1.1.6 0 1 .2 1 .4zm85.5.6c.3.5.1 1-.4 1-.6 0-1.1-.5-1.1-1 0-.6.2-1 .4-1 .3 0 .8.4 1.1 1zm47 1c-.3.5-1.2 1-1.8 1-.7 0-.6-.4.3-1 1.9-1.2 2.3-1.2 1.5 0zm-11.2 9.2c-.7 1.2-4.1.9-4.9-.4-.5-.7-1.2-.5-2.2.8-.9 1.2-1.2 1.3-.9.4.2-.8 0-2.3-.5-3.3-.9-1.8.6-2.5 1.7-.7.3.5 1.3 1 2.2 1 1.1 0 1.4-.6.9-2.4-.3-1.2-.2-2.6.2-3 .8-.8 4.2 6.5 3.5 7.6zm7.4-4.8c.3.6.3.8-.1.4-.4-.3-2.1-.2-3.7.2-3 .9-5.2-.6-3-2 1.6-.9 6-.1 6.8 1.4zm-28.7 1.2c0 1.4-.4 2.3-.9 2-.5-.3-.7-1.5-.4-2.6.7-2.8 1.3-2.5 1.3.6zm7.3 3.6c-.2.5-1 .8-1.8.8-.9 0-1.1-.7-.7-2.3.5-1.9.3-2-1-.9-1.1.9-1.8 1-2.3.2-.3-.5-.1-1 .5-1s.8-.5.4-1.2c-.4-.6-.3-.8.4-.4.6.3 1.4.1 1.8-.5.7-1.3 3.4 4 2.7 5.3zm-15.5-2.7c-.3.3-.9-.2-1.2-1.2-.6-1.4-.5-1.5.5-.6.7.7 1 1.5.7 1.8zm19 1.5c-.1 3.9-1.8 5.1-1.8 1.2 0-2.5.7-4.2 1.6-4.2.1 0 .2 1.4.2 3zm-16.3-.1c-.3.6-1.1 1.1-1.6 1.1s-.4-.6.3-1.4c1.4-1.6 2.4-1.3 1.3.3zm-60.5 0c0 .6-.4 1.3-1 1.6-.5.3-1-.1-1-.9 0-.9.5-1.6 1-1.6.6 0 1 .4 1 .9zm116.6.6c-.4 1.1.2 1.5 2.2 1.5 3.3 0 4.5.8 6.2 4 .7 1.4 3.1 4.6 5.2 7.1s3.8 5.1 3.8 5.8c0 2.8 3.3 7.3 6.1 8.3 3.7 1.3 3.9 3.8.2 3.8-1.6 0-5.9-1.2-9.8-2.6-3.8-1.4-11.6-4.3-17.3-6.3-5.7-2-10.3-4.1-10.2-4.7.1-.5-.9-1.2-2.2-1.6-1.3-.3-1.7-.6-.9-.7.7-.1 1.1-.7.7-1.6-.3-.8-.1-1.5.4-1.5.6 0 1 .7 1 1.6 0 .8.5 1.2 1.1.8.6-.3.8-1.5.6-2.6-.3-1.1 0-2.1.9-2.5.8-.3 1.1-.9.8-1.4-.3-.5.4-.9 1.5-.9s2.3-.5 2.6-1c.3-.6-.3-1-1.4-1-2.2 0-3-2.9-.8-3.2 2.9-.3 5.3-.6 7-.7 1 0 1.5-.6 1.2-1.1-.3-.6-.1-1 .5-1 .7 0 1 .7.6 1.5zm-52.6.5c0 .5-.5 1-1.1 1-.5 0-.7-.5-.4-1 .3-.6.8-1 1.1-1 .2 0 .4.4.4 1zm18.3 17c3.7 2.5 6.6 4.7 6.4 5-.1.3-1.5 3.1-3.1 6.3-2.6 5.3-3 5.7-4 3.9-.6-1-1.7-1.7-2.3-1.5-.7.3-1.3.1-1.3-.4s.6-1.5 1.3-2.2c1-1.2.9-1.3-.7-.7-1.3.4-1.7.2-1.3-.8.4-.9-.7-2.9-2.5-4.8-2.9-3.2-5.2-8.1-4.1-9.1 1.2-1.3 5.5.3 11.6 4.3zm26.8 7c.5 0 .9-.5.9-1.1 0-1.6 4.2 0 7.2 2.9 3.4 3.1 3 4-.7 1.6l-2.8-1.8 1.6 3c1.8 3.5 5.4 7.4 6.7 7.4 1.8 0 1 2-.7 2-1.2.1-.9.6 1.2 1.8 1.7.9 3.3 1.6 3.7 1.7 1.9.1 1.9 1.7 0 2.2-2.1.5-2.1.6.8 4.7 1.7 2.3 3.2 5.6 3.3 7.4.1 1.8.5 3.2.9 3.2 1 0 .3 3.6-3.4 19.3-1.8 7.5-3.6 12.7-4.3 12.7-.7 0-1 1.1-.7 2.9.2 1.6 0 3.7-.5 4.6-.7 1.2-1-.3-1-5 0-4.3.4-6.4 1.1-6.2 1 .4 1.2-2 .6-9.3l-.2-2.5-1 2.7c-.5 1.6-1.5 2.8-2.1 2.8-.7 0-.4.7.6 1.4 1.3 1.1 1.4 1.5.4 1.9-.7.3-1.9 2.4-2.6 4.7-1 3.4-1.5 3.9-2.7 2.9-1.1-.9-1.4-.7-1.5 1.2 0 1.3-.3 1.8-.6 1.1-.3-.9-1-.7-2.3.8-1.3 1.5-2.6 2-4.2 1.6-1.3-.3-1.7-.3-1 0 .6.3 1.2 1 1.2 1.5 0 .6-.4.8-.9.5-.5-.3-1.1.3-1.4 1.4-.5 2.1-2.7 2.8-2.7.9 0-.5-.4-.7-1-.4-.5.3-1 .2-1-.3 0-.6.7-1.3 1.6-1.6 2.2-.8.8-2.6-2.1-2.6-1.8 0-2.3.4-1.9 1.5 1.2 3-1.3 1.4-3.9-2.5-1.4-2.3-2.2-3.8-1.7-3.5.6.3 1 0 1-.8s-.7-1.8-1.5-2.1c-1.7-.6-7.5-12.1-7.5-14.7 0-.8-.6-2.1-1.2-2.8-1-1.1-1-1.4-.1-1.8.9-.3 1-1 .3-2.4-.7-1.3-.7-1.9-.1-1.9s.8-1.4.5-3.3c-1-5.4-2.5-9.7-3.5-9.7-.5 0-.9-1-.9-2.1 0-1.6.5-2 2-1.6 1.1.3 2 .2 2-.3 0-1.4-2.9-3.2-4.1-2.4-.7.4-.9.3-.5-.4.3-.6 1.9-1 3.4-.8 2.2.2 2.7.6 2.4 2.6-.1 1.3-.8 2.8-1.5 3.2-1.8 1.2-.1 1 2.8-.4 1.4-.6 2.5-1.5 2.5-2s.4-.6 1-.3c.5.3.7 0 .4-.9-.3-.8-1.2-1.7-2-2-2.8-1.1-1.3-2.1 2.6-1.8 2.2.2 4 .9 4 1.6 0 .6.5.4 1-.4.8-1.2 1-1 1 .8 0 1.3-.4 2-1 1.7-1.3-.8-1.3.8.1 2.2.8.8.8 1.7 0 3.2-.8 1.4-.8 2.1-.1 2.1.6 0 1.6 1.1 2.2 2.5.6 1.4 1.7 2.5 2.5 2.5.7 0 1.3.5 1.3 1.1 0 .5.5.7 1 .4.6-.4.8-1.1.5-1.6-1.3-2 .8-.7 4.7 3 2.5 2.5 4.6 3.7 5.6 3.3 1.1-.4 1.4-.1.9 1.1-.7 1.8.8 2.4 1.8.7.4-.6-.5-2.6-1.9-4.4-1.7-2.3-2.2-3.6-1.4-4.4.7-.7.7-1.6-.1-2.9-1-1.7-1-1.6-1.1.4 0 2.5-1.5 3.1-2.3 1-.2-.6-.3-2.4-.1-4 .2-2-.2-2.7-1.4-2.7-1.3 0-1.4.2-.4.9 1.1.7.9 1.3-.9 3-1.2 1.1-2.4 2-2.5 1.8-.2-.1.1-1.9.5-3.9.7-2.8.5-4-.5-4.9-1.6-1.3-1.9-3.3-.4-2.4.7.4.8-.3.4-2.2l-.7-2.8 2.5 2.3c2.5 2.3 4.7 2 2.7-.4-.6-.7-1.1-5.2-1.1-10.1.1-9.9.2-11.6.9-9.1.2 1 .9 1.8 1.4 1.8zm-18.1 1.5c-.9 1.1-1 1.5-.1 1.5.7 0 .9.5.5 1.2s-.7 2.7-.6 4.4c.2 1.8-.3 3.6-.9 4-.9.5-1.1-.7-.7-4.4.3-3.1.1-5.3-.5-5.5-.6-.2-.2-1.2.9-2.3 2.1-2.2 3.3-1.2 1.4 1.1zm-17.6 5.9c-.3.8 0 1.7.7 2.2.8.4 1 .3.5-.4-.4-.7-.1-1.2.8-1.2 1.9 0 3 1.7 1.6 2.5-.7.5-.6 1.1.5 1.9 1 .7 1.4 1.8 1 2.9-.6 1.4-.9 1.5-2.1.2-.8-.8-2.1-1.2-2.9-.9-.8.4-1.5.1-1.5-.5s.6-1.1 1.3-1.1c.8 0 .8-.3.1-.8-1.8-1.2-2.6-4.5-1.2-5.4 1.7-1.1 1.8-1 1.2.6zm48.1-.3c1.1 1.7-.1 2.1-1.5.4-.8-.9-.8-1.5-.2-1.5.6 0 1.4.5 1.7 1.1zm-67.2 5c1.8-1.8 3.4-1.2 4.1 1.4.6 2.2 1 2.4 3.4 1.8 2.4-.6 2.6-.5 1.3 1.1-.8.9-1.1 2-.7 2.3.4.4 1.1.1 1.6-.7.8-1.3 1.1-1.2 2.3.4.8 1.1 1.7 1.5 2 .9.4-.6-.5-2-1.8-3.3-2.3-2.1-2.6-4.8-.4-3.4.5.3.7.9.4 1.4-.7 1.1 2.9.7 3.7-.5.4-.6.8-.2.8.7 0 1 .4 1.8.8 1.8.5 0 1.7.6 2.7 1.4 1.9 1.4 1.9 1.5.1 3.4-1 1.2-2.5 1.8-3.4 1.5-1.4-.4-1.4-.3-.3.5 1.1.8.2 2.3-4.5 7.6-3.2 3.6-6.2 6.6-6.5 6.6-1.1 0-4.9-3.7-4.9-4.9 0-.6-.4-1.1-1-1.1-.5 0-1.6-1.4-2.5-3-.9-1.7-2.3-3-3.2-3-.9 0-2.4-.6-3.2-1.4-.9-.8-3-2.2-4.6-3l-3-1.6h2.8c3.2 0 9.1 2.4 12.1 4.9 1.8 1.5 1.8 1.5.5-.7-.8-1.2-1.6-2.2-2-2.2-.6 0-.8-1.5-1-6.3 0-1.8-.4-2.5-1.2-2-.7.4-.7 0 .1-1 1.3-1.5 1.6-1.5 2.9-.1 1.1 1.1 1.9 1.2 2.6.5zm-14.8 5.8c-.6.5-2.5-1-2.5-2 0-.5.6-.4 1.4.3.8.7 1.2 1.5 1.1 1.7zm62.5 11.5c-.5 1.3-.6 2.7-.3 3 .4.3.1.6-.5.6-1.3 0-1.4-.5-.6-3.8.4-1.2 1-2.2 1.5-2.2s.4 1.1-.1 2.4zm106.5.7c1.1 1.7-.1 2.1-1.5.4-.8-.9-.8-1.5-.2-1.5.6 0 1.4.5 1.7 1.1zm-101.3 3.4c0 .5-.5 1.1-1.1 1.3-.6.2-1.1-.4-1.1-1.3s.5-1.5 1.1-1.3c.6.2 1.1.8 1.1 1.3zm99.3 3.5c1.8.8 1.7.9-.7.9-1.6.1-2.8-.4-2.8-.9 0-1.2.8-1.2 3.5 0zm-.1 2.9c.3.5-.1 1.1-.9 1.4-.9.4-1.2.1-.8-.9.6-1.6 1-1.7 1.7-.5zm1.4 6.2c-1.9 1.2-2.5 1.1-3.1-.5-.4-1.1-.1-1.3 1-.9 1.2.5 1.4.3.8-.8-.8-1.2-.6-1.2.9 0 1.3 1.1 1.4 1.6.4 2.2zM102 245.2c0 2.5-.3 2.9-1 1.8-1.3-2-1.3-5 0-5 .6 0 1 1.5 1 3.2zm151.5 1.8c.3.5.1 1-.4 1-.6 0-1.1-.5-1.1-1 0-.6.2-1 .4-1 .3 0 .8.4 1.1 1zm17.5 1c0 .5-.5 1-1.1 1-.5 0-.7-.5-.4-1 .3-.6.8-1 1.1-1 .2 0 .4.4.4 1zm-8.6 3.6c.3.8.2 1.2-.4.9-.6-.3-1-1-1-1.6 0-1.4.7-1.1 1.4.7zm-148.9 1c2.6-.7 5.4 2 5 4.6-.4 2.1.8 2.3 2.3.5.8-1 .6-1.6-.9-2.5-2.4-1.5-2.6-3.6-.1-2.4.9.5 2.3.7 3 .5.6-.3 1.2-.1 1.2.4s2 3 4.5 5.7 4.4 5 4.2 5.2c-.1.1-2.4.5-5.2.7-2.7.3-6.9.9-9.3 1.3-3.6.6-4.1.4-3.7-.9.4-.8.2-1.8-.4-2.2-.6-.3-1.1-1.6-1.1-2.8-.1-2.3-2.1-5.7-3.5-5.7-.5 0 0 .9.9 1.9 1 1.1 1.5 2.5 1.1 3.1-.8 1.3-2.9-.6-5.9-5.2-1.6-2.5-1.6-2.6.1-3 1-.3 2.6 0 3.6.5 1.1.5 2.9.6 4.2.3zm144.5.3c0 .6-.4 1.3-1 1.6-.5.3-1-.1-1-.9 0-.9.5-1.6 1-1.6.6 0 1 .4 1 .9zm-4.3 3.3c-.3.8-.6.5-.6-.6-.1-1.1.2-1.7.5-1.3.3.3.4 1.2.1 1.9zm1.3 2.8c0 .5-.4 1-1 1-.5 0-1-.5-1-1 0-.6.5-1 1-1 .6 0 1 .4 1 1zm-109.2 17.5c0 2.5-1.2 3.3-2.2 1.6-.7-1.1.3-4.1 1.4-4.1.4 0 .8 1.1.8 2.5zm110.8-1.4c.3.6-.1 1.8-1 2.7-1.5 1.5-1.6 1.4-1.6-1.1 0-2.7 1.3-3.6 2.6-1.6zm-98.3 16.4c1.5 1.4 2.7 2.8 2.7 3 0 1.1-1.8.4-3.7-1.4-1.2-1.1-2.4-1.7-2.7-1.4-.3.4-.6-.1-.6-1 0-2.3 1.1-2.1 4.3.8zm4.7.1c0 .8-.5 1.2-1 .9-.6-.4-.8-1.1-.5-1.6.9-1.4 1.5-1.1 1.5.7zm93.5 3.2c-.6.7-3.5 1.2-3.5.7 0-.2.3-1.1.6-1.9.5-1.3.9-1.4 2-.5.8.7 1.2 1.4.9 1.7zm-112.8 3.4c-.3.8-.6.5-.6-.6-.1-1.1.2-1.7.5-1.3.3.3.4 1.2.1 1.9z"/><path d="M70 58c0 .5.5 1 1.1 1 .5 0 .7-.5.4-1-.3-.6-.8-1-1.1-1-.2 0-.4.4-.4 1zM75 76.5c.7.9 1.5 1.3 1.7 1.1.7-.7-.7-2.6-1.9-2.6-.6 0-.6.6.2 1.5zM99.5 133.1c-.4.6-1.4.8-2.2.5-.8-.3-1.2-.2-.9.3.3.5 1.4 1.1 2.5 1.4 1.5.3 1.9 0 1.8-1.4-.1-2.2-.3-2.3-1.2-.8zM68.3 143.7c.9.2 2.3.2 3 0 .6-.3-.1-.5-1.8-.5-1.6 0-2.2.2-1.2.5zM100 151c0 .5.5 1 1 1 .6 0 1-.5 1-1 0-.6-.4-1-1-1-.5 0-1 .4-1 1zM158.3 176c.3 1.1 1.9 1.5 6.1 1.6 6.1.1 6.4-1 .4-1.9-2.4-.4-3.9-.1-4.2.6-.3.9-.8.8-1.6-.3-1-1.3-1.1-1.3-.7 0zM157.6 204.5c.4 1.6.7 3.8.8 4.7 0 .9.4 1.4.9 1.1.4-.3 1.7.3 2.7 1.2 3.7 3.3 4.4 1 .8-2.6-1.9-1.9-4-4.4-4.7-5.5-1.1-1.7-1.1-1.5-.5 1.1zM159.3 214c-.1 1.1.2 2 .8 2 .5 0 .9-.9.9-2s-.4-2-.8-2-.8.9-.9 2zM163.9 214.2c-.7 2.4-.4 3.4 1.2 3.5 1.6.2 1.7-.2.9-1.8-.9-1.7-1.8-2.4-2.1-1.7zM168 215.9c0 .6.5 1.3 1 1.6.6.3 1-.1 1-.9 0-.9-.4-1.6-1-1.6-.5 0-1 .4-1 .9zM158.5 218c-.3.5-.2 1 .4 1 .5 0 1.3-.5 1.6-1 .3-.6.2-1-.4-1-.5 0-1.3.4-1.6 1zM138 225.4c0 .9.5 1.6 1 1.6.6 0 1-.4 1-.9 0-.6-.4-1.3-1-1.6-.5-.3-1 .1-1 .9zM162 228.7c0 .4.8 1.7 1.6 2.8 1.5 2 1.6 2 1.2-.4-.3-2.2-2.8-4.4-2.8-2.4zM159.5 234c.3.5.8 1 1.1 1 .2 0 .4-.5.4-1 0-.6-.5-1-1.1-1-.5 0-.7.4-.4 1zM137 235.1c0 .5.5.7 1 .4.6-.3 1-.8 1-1.1 0-.2-.4-.4-1-.4-.5 0-1 .5-1 1.1zM133 236.5c0 .8.5 1.5 1 1.5.6 0 1-.7 1-1.5s-.4-1.5-1-1.5c-.5 0-1 .7-1 1.5zM146.3 237.4c0 .7.9 1.8 1.9 2.5 1 .6 1.8.7 1.8.3 0-.5-.8-1.6-1.8-2.5-1.4-1.3-1.9-1.4-1.9-.3zM140.6 240.9c-.5.8-.3 1.7.5 2.2 1.7 1.1 3.9 1.2 2.3.1-.6-.4-1.3-1.4-1.6-2.2-.3-1.1-.6-1.1-1.2-.1zM153.9 241.3c.7.9 1 2.1.6 2.7-.3.5.1 1 .9 1 1.9 0 2.1 1.6.4 2.3-.8.3-.1.9 1.5 1.6 1.5.6 3 1.8 3.3 2.6 1 2.4 2.1 1.8 2.6-1.4.5-3.3-1.3-6.4-3.3-5.6-.8.3-1.8-.4-2.4-1.7-.6-1.3-1.9-2.5-3-2.7-1.7-.3-1.7-.1-.6 1.2zM133 244.9c0 .5.5 1.3 1 1.6.6.3 1 .2 1-.4 0-.5-.4-1.3-1-1.6-.5-.3-1-.2-1 .4zM151 248c0 .5.7 1 1.5 1s1.5-.5 1.5-1c0-.6-.7-1-1.5-1s-1.5.4-1.5 1zM148.9 248.2c-.9 3.5-.4 6.7 1.2 7.6 1.1.7 1.9.8 1.9.3 0-.6-.5-1.3-1.1-1.7-.6-.3-.9-1.5-.6-2.5.3-1.1.1-1.9-.5-1.9-.5 0-.6-.5-.3-1 .3-.6.4-1 .1-1-.3 0-.6.1-.7.2zM138.2 252.1c.1 2.2.8 3.4 2.5 4.2 3.4 1.5 3.7.4 1.1-3.6-2.8-4.5-3.7-4.6-3.6-.6zM154.6 252.5c.4.8.8 1.5 1 1.5.2 0 .4-.7.4-1.5s-.4-1.5-1-1.5c-.5 0-.7.7-.4 1.5zM164.5 253c-.3.5-.1 1 .4 1 .6 0 1.1-.5 1.1-1 0-.6-.2-1-.4-1-.3 0-.8.4-1.1 1zM146 256c0 .5.5 1 1.1 1 .5 0 .7-.5.4-1-.3-.6-.8-1-1.1-1-.2 0-.4.4-.4 1zM160 257c0 3.6 1.1 7 2.2 7 .5 0 .6-1.6.2-3.8-.8-4.5-2.4-6.6-2.4-3.2zM156 256.9c0 .5.7 1.1 1.4 1.4 1 .4 1.3.1.9-.9-.6-1.5-2.3-1.9-2.3-.5zM148.5 258c-.5.8 1 5 1.9 5 .1 0 .1-1.4-.2-3-.5-3.2-.7-3.6-1.7-2zM153.5 261c.3.5.8 1 1.1 1 .2 0 .4-.5.4-1 0-.6-.5-1-1.1-1-.5 0-.7.4-.4 1zM141.6 263.3c.3 1 .9 1.5 1.2 1.2.3-.3 0-1.1-.7-1.8-1-.9-1.1-.8-.5.6zM149.6 265.5c2.5 1.9 4 1.9 2 0-.8-.8-2-1.5-2.7-1.5-.7 0-.4.6.7 1.5zM119 216.5c0 .8.4 1.5 1 1.5.5 0 .7-.7.4-1.5-.4-.8-.8-1.5-1-1.5-.2 0-.4.7-.4 1.5zM109 220.5c.7.9 1.5 1.3 1.7 1.1.7-.7-.7-2.6-1.9-2.6-.6 0-.6.6.2 1.5zM105 226c.6 1.1 1.5 1.8 2.1 1.5 1.3-.9 1.1-1.3-1.2-2.5-1.9-1.1-2-1-.9 1zM147 1c0 .5 1 1.5 2.3 2.1 1.2.7 2.6 1.8 3 2.6.5.7 1.2 1.1 1.7.8.5-.3 1.1-.1 1.5.5.4.6 1.1.7 1.7.4.6-.4.8.1.3 1.5-.5 1.6-.3 2 .9 1.5s1.5-.2 1 1c-.9 2.3 2.6 3.4 3.8 1.3.5-1 1.4-1.7 1.9-1.7.6 0 .7.6.3 1.2-.6 1-.4 1 .7 0 1.6-1.4 3.3-1.6 2.4-.2-1 1.5 1.2 1.2 2.8-.5.9-.8 1.7-1 1.9-.5.2.5 1.3.7 2.5.4 1.3-.4 2-1.1 1.6-1.7-.3-.5-.2-.7.4-.4.6.4 1.9 0 2.9-.8 2.8-2.1 3.7-1.8 3 1-.5 2.1-.3 2.5 1.4 2.5 1.2 0 1.9-.4 1.6-.9-.4-.5.3-.7 1.4-.4 2.4.6 2.6 1.9.5 2.7-2 .7-1.9 3.2.1 4 2.2.9 2.3.8 1.7-1.7-.4-1.9-.3-2 .7-.4.6.9.8 2.7.4 3.9-.5 1.7-.3 2 1 1.5 3.1-1.2 1.8 3-1.3 4.3-3 1.2-3 1.2-1.1 3.3 1.5 1.5 1.7 2.4.9 3.4-1.1 1.3-.9 1.5 2.1 1.7.8.1 1.4.7 1.3 1.3-.4 1.7 3.7 1 7-1.1 1.6-1.1 3.7-1.6 5.3-1.3 3.2.6 10.8-1.8 14.7-4.7 4.4-3.2 9.2-2.5 13.9 2.1 5.7 5.5 6.5 8 3.4 11.1-2.5 2.5-5.3 3-11.3 1.7-3.1-.7-9.3 1.1-9.3 2.7 0 .4.9 1.2 2 1.8 1.1.6 2 1.7 2 2.6 0 .8.7 1.7 1.6 2.1 1.3.5 1.3.7.2 1.4-.9.6-.8.9.7.9 4 0 7.1 6.2 5.4 10.7-.9 2.4-1.3 2.5-5.5 1.9-2.5-.3-6.1-1.3-8-2.2-3.3-1.6-5.2-1.5-4.1.3.7 1.1 7.9 4.7 14.9 7.4 4.8 1.9 6.6 3.3 11.2 9.3 3.1 3.8 5.7 8 5.8 9.3 0 1.3.1 2.9.2 3.5.1.7.7 1.8 1.4 2.3.7.6 1.5 2.8 1.9 5 .3 2.2 1.2 4.6 2 5.3 1.7 1.7 1.6 2.7-.2 4.2-1.9 1.6-1.9 3-.1 3 .8 0 2.4.8 3.7 1.9 2.2 1.7 2.2 2 .7 4.2-2.1 3.3-5.6 3.5-6.8.3-.5-1.3-.9-3.4-.7-4.7.1-1.7-.3-2.2-1.8-2-1.1.1-3.9.3-6.2.4-2.4.2-4.3.6-4.3 1s-3 1-6.6 1.4l-6.6.7.6 8.6c1.1 13.9 1.7 17.2 3.2 17.2.8 0 1.4-.6 1.4-1.3 0-.9.2-.9.8 0 .4.6 2.4 1.1 4.5 1.1s4.1.3 4.4.6c.3.3 1.2-.2 1.9-1.2.7-.9 1.4-1.2 1.4-.5 0 .6.9.9 2 .6 1.1-.3 2-.1 2 .3 0 .5 1.8 1 4 1.1 2.4.2 4-.2 4-.8 0-.8.5-.7 1.5.1 1.1.9 1.5.9 1.5.1 0-.9.5-.9 2-.1 1.6.9 1.8.8 1.4-.5-.4-.9-.3-1.5.2-1.4 2.2.4 3.3-.2 2.8-1.6-.4-.8-.1-1.5.4-1.5 1 0 .7 4.4-.5 6.3-.3.5.5.4 1.7-.3 2-1 2.2-1 1.7.3-.5 1.3.6 1.5 6.9 1.3 4.9 0 7.4-.5 7.4-1.3 0-1.2 1.7-1.2 3.7 0 .7.4 3 .7 5.1.6 2.1-.2 4.4.1 5 .5.7.4 1.9.3 2.7-.4 1-.8 1.5-.8 2.1.1.4.7.2 1.5-.4 1.7-.7.2-1.1 1.6-1.1 3 .2 2.4.2 2.4.6.4.2-1.2.9-2.2 1.4-2.2.5 0 .9-.7.9-1.5s.5-1.5 1-1.5c1.6 0 1.3-27-.2-27.1-6.7-.5-16.8 1.3-16.8 3 0 .4-1.2 1.3-2.6 2-4 1.8-13.1-1.1-14.4-4.5-2.6-6.7-.9-12.4 5.3-18.6.9-1 1.8-2.3 1.8-2.8.1-.6.2-1.5.3-2.1.1-1.2.7-1.6 6.1-4 1.7-.8 4.6-3 6.5-4.9 2.7-2.8 3.5-4.4 3.7-8 .6-9 1.2-12.6 3-16.6 1.7-3.8 2.1-4.1 5.1-3.8l3.2.4V0h-76.5C175 0 147 .4 147 1zm61.8 12.5c-.3.3-.9-.2-1.2-1.2-.6-1.4-.5-1.5.5-.6.7.7 1 1.5.7 1.8zm44.2 5c0 .8-.6 1.5-1.4 1.5-1.7 0-2.8-1.4-1.9-2.4 1.2-1.2 3.3-.6 3.3.9zm-6 3.3c0 .4-.9 1.3-2 2-1.9 1.2-2 1.1-.8-.8 1.3-2 2.8-2.7 2.8-1.2zm3 .6c0 .3-.4.8-1 1.1-.5.3-1 .1-1-.4 0-.6.5-1.1 1-1.1.6 0 1 .2 1 .4zm2.1 14.2c.9.8 2.3 1.2 3.2.8.9-.3 3.9-.1 6.7.6 4.1 1 5 1.6 5 3.4 0 1.2-.6 2.8-1.2 3.5-1.1 1.2-1 1.3.6.7 1-.4 4.3 0 7.2.9 6.3 1.8 9.4 5.9 9.4 12.4 0 3.9-.2 4.2-4 5.7-2.2.9-4 1.8-4 2.1 0 .3 1.4 2.1 3.1 4.1 5.3 6 2.7 11.4-7.2 14.7-3 1-5.7 2.9-7.7 5.4-4.1 5.1-7.4 5.7-9.6 1.9-1-1.5-1.5-2.8-1.1-2.8.3 0-.8-2.7-2.5-6.1-2.1-4-2.9-6.8-2.4-8.2 1.2-4.1 4.9-8.8 8-10.1 2.5-1.1 3.3-2.3 4.3-6.1.6-2.6 1.8-5.7 2.6-6.9.8-1.3 1.2-2.5.9-2.9-.9-.9-6.6 3.9-8.5 7.1-1.1 2-2.8 2.9-6.2 3.6-5.4 1.1-5.5 1-6.2-3-1.8-10.2-1.8-10.1.6-11.8 1.3-.9 1.8-1.6 1.2-1.6-.6 0-1.5-1.4-1.8-3.2-1.3-5.8 4.8-8.4 9.6-4.2zm10.4 99.4c.3.5-.1 1-1 1s-1.3-.5-1-1c.3-.6.8-1 1-1 .2 0 .7.4 1 1z"/><path d="M181.5 9c-.3.5-.1 1 .4 1 .6 0 1.1-.5 1.1-1 0-.6-.2-1-.4-1-.3 0-.8.4-1.1 1zM82.2 12.5c0 1.6.2 2.2.5 1.2.2-.9.2-2.3 0-3-.3-.6-.5.1-.5 1.8zM177.5 12c-.3.5.1 1 .9 1 .9 0 1.6-.5 1.6-1 0-.6-.4-1-.9-1-.6 0-1.3.4-1.6 1zM99 13.1c0 .5.5.7 1 .4.6-.3 1-.8 1-1.1 0-.2-.4-.4-1-.4-.5 0-1 .5-1 1.1zM102.8 14c-.2.6-1.6 1.2-3.2 1.3-1.6.1-3.2.9-3.4 1.7-.5 1.3-.3 1.3 1.3 0 1.7-1.4 1.8-1.3 1.3.2-1.2 3.2 2 2.8 3.7-.4.8-1.7 1.3-3.3 1.1-3.5-.2-.2-.6.1-.8.7zM116 18c-1.7 4.2-.6 4.9 1.4.9 1.9-3.7 1.9-3.9.7-3.9-.5 0-1.4 1.4-2.1 3zM132.7 15.6c-.4.4-.7 1.4-.7 2.3 0 1.1.3 1.2 1.1.4.6-.6 1-1.6.7-2.3-.2-.6-.7-.8-1.1-.4zM77.2 18c-.6 1-.8 2.1-.3 2.4.5.3 1.1-.4 1.4-1.6.8-2.9.4-3.2-1.1-.8zM107.9 17.7c.8 1.5.8 2.4.1 2.8-.6.4-.7 1.1-.4 1.7.5.7 1.2.4 2.1-.7 1.3-1.9 1.9-4.4.6-3.2-.3.4-1.2-.1-2-1.1-1.3-1.5-1.3-1.5-.4.5zM119 19.6c-3.8 4.4-3.2 5.6 1 2 1.7-1.4 3.6-2.6 4.1-2.6.5 0 .9-.7.9-1.6 0-1.4-.2-1.5-1.7-.3-1.1 1-1.4 1-.9.1 1.4-2.3-.2-1.2-3.4 2.4zM80.2 20.1c-.7 1.1-1.1 2.4-.8 2.7 1 .9 2.8-1.5 2.4-3.2-.2-1.4-.5-1.3-1.6.5zM141 21.6c.5 2.3.5 4.5-.1 5.7-.6 1-.8 2.1-.5 2.5.3.3.6 0 .6-.7s.5-.9 1-.6c.6.4.9 1.9.8 3.3-.1 1.5.1 3.3.5 3.9.4.6.3 1.4-.3 1.8-.5.3-1.2-.6-1.6-2-.4-1.6-1.2-2.4-2.3-2.3-1 .2-1.5-.3-1.3-1.4.1-.9-.2-1.9-.8-2.3-.5-.3-1 .1-1 .9s-.5 1.8-1 2.1c-.7.4-.8-.3-.4-2.1.6-2.3.4-2.6-1-2.1-1 .4-2 .7-2.2.7-.2 0-.4 1.2-.4 2.6 0 1.4.4 2.3 1 1.9.6-.3 1-.1 1 .4 0 .6-.4 1.1-1 1.1-.5 0-1 .4-1 1 0 1.4 2.7 1.2 3.4-.3.3-.6.3 0 0 1.5-.5 2.1-.2 2.8 1 2.8 1 0 1.3.5.9 1.7-.4 1.1-.3 1.4.5.9 1.5-.9 1.6 2.2.2 5.8-.7 1.9-.6 2.4.3 2 .8-.3 1.2 1.1 1.3 4.3.2 9.4 1.4 16.1 2.9 15.9 2.5-.4 6.5-4.8 6.5-7.2 0-1.3.5-2.6 1.1-3 .6-.3.9-1.8.6-3.3-.3-1.6.1-3.3 1.1-4.4 1.5-1.7 1.5-2 .1-3-1.2-.9-1.4-1.8-.7-3.6.7-2.1.6-2.2-.7-1.1-2.2 1.8-2.7.9-1.1-2.2.8-1.5 1.2-2.9 1-3.1-.3-.2.2-1 1.1-1.7.8-.7 1.5-1.9 1.5-2.7 0-1.3-.3-1.3-1.5-.3-1.1.9-1.5.9-1.5.1 0-.7 1.3-2 3-2.9 3-1.7 4.2-3.9 1.6-2.9-.9.4-1.6-.4-2.1-2.1l-.7-2.7-1.9 2.5c-1.8 2.2-1.9 2.2-1 .3.6-1.2 1.1-2.7 1.1-3.4 0-1.8-4 2.1-4 4-.1.9-.7.2-1.4-1.4-.7-1.7-1.1-3.7-.9-4.6.3-.8-.2-2.1-1-2.8-1.3-1-1.4-.7-.7 2.5zm6.4 12.6c.5 2.2.3 2.8-1 2.8-1.1 0-1.4-.5-1-1.6.3-.9.6-2.3.6-3.1 0-2.2.6-1.4 1.4 1.9zm-8.7 2.3c0 1.8-1.9 1.5-2.5-.3-.2-.7.3-1.2 1.1-1.2.7 0 1.4.7 1.4 1.5z"/><path d="M137.5 20.1c-.4.6-.5 1.2-.2 1.5.2.3.7-.2 1-1.1.7-1.7.1-2-.8-.4zM144.5 20.3c-.4 1-.5 2.1-.1 2.4 1 1 1.8-.4 1.3-2.4-.4-1.7-.4-1.7-1.2 0zM97.5 21c-.3.5-.2 1 .4 1 .5 0 1.3-.5 1.6-1 .3-.6.2-1-.4-1-.5 0-1.3.4-1.6 1zM101.2 21.2c.6 1.8 2.8 2.1 2.8.4 0-.9-.7-1.6-1.6-1.6-.9 0-1.4.5-1.2 1.2zM136.7 24.4c-.3.7.5 1.3 1.9 1.4 1.3.1 2.4-.2 2.4-.7 0-1.4-3.8-2-4.3-.7zM105 32.1c0 .5.5.7 1 .4.6-.3 1-.8 1-1.1 0-.2-.4-.4-1-.4-.5 0-1 .5-1 1.1zM153.4 33.2c-.4.6-.3.8.4.4.5-.3 1.2-.1 1.4.6.3.8.6.9 1.1.1.4-.6 0-1.3-.8-1.7-.8-.3-1.7 0-2.1.6zM153.2 37.2c-.6.6-1.2 1.9-1.2 2.7 0 1.3.2 1.3 1.6-.1.9-.9 1.5-2.1 1.3-2.7-.3-.9-.8-.8-1.7.1zM129 38c0 .5.5 1 1.1 1 .5 0 .7-.5.4-1-.3-.6-.8-1-1.1-1-.2 0-.4.4-.4 1zM156 40.1c0 .5-.5.7-1.1.3-.7-.4-1-.1-.7.7.7 2 3.2 1.7 3.6-.4.2-.9-.1-1.7-.7-1.7s-1.1.5-1.1 1.1zM157.7 43.7c-2.2 2.9-1.8 3.8.7 2 1-.7 1.7-2 1.5-2.9-.3-1.3-.8-1.1-2.2.9zM152 44.1c0 .5.5.7 1 .4.6-.3 1-.8 1-1.1 0-.2-.4-.4-1-.4-.5 0-1 .5-1 1.1zM152.5 47c-.3.5-.1 1 .4 1 .6 0 1.1-.5 1.1-1 0-.6-.2-1-.4-1-.3 0-.8.4-1.1 1zM210 49.3c-2.3 1.2-3.5 3.7-1.7 3.7h2.6c1.4 0 1.9-.7 1.7-2.5 0-1.4-.1-2.5-.1-2.5s-1.1.6-2.5 1.3zM158.4 54.7c.3.6-.5 2.4-1.6 3.8l-2.1 2.7 3.2-1.7c2.1-1 3.1-2.2 2.7-3.1-.3-.8-.1-1.4.4-1.4.6 0 1-.4 1-.9 0-.6-.9-.9-2-.8-1.2.1-1.8.7-1.6 1.4zM163.7 59.1c-.4 1.6-.3 1.8.9.8 1.6-1.3 1.9-2.9.5-2.9-.5 0-1.1.9-1.4 2.1zM152.6 62.9c-.4.5.1.8.9.7 2.1-.3 3.1-1.6 1.2-1.6-.9 0-1.8.4-2.1.9zM162 64.4c0 .9 4 1.3 4.6.5.3-.5-.6-.9-2-.9s-2.6.2-2.6.4zM298.9 96.4c-.7.7-2.2 1-9.4 2-12.1 1.6-13.1 2.5-6 5.1 2.7 1.1 5.1 1.4 6.2.9 1-.4 2.9-.8 4.3-.9 4.2-.2 6.2-1.9 5.8-4.9-.2-1.5-.6-2.5-.9-2.2zM172 99c0 .5.8 1.4 1.8 1.9 1.5.9 1.4 1-.7 1.1-1.4 0-3.3.7-4.3 1.7-1 .9-1.8 1.1-1.8.5 0-.6 1-1.6 2.1-2.3 1.7-.9 1.9-1.3.8-2-.8-.5-2-.2-3 .7-.8.8-1.9 1.1-2.4.7-.4-.5-.5-.2 0 .6.6 1 .2 1.1-1.5.6-1.5-.5-2-.4-1.6.4.4.6.2 1.1-.3 1.1-.6 0-1.1.5-1.1 1.1 0 .7 1.1.9 3 .5 1.7-.3 3-.2 3 .2 0 .5-1.8.9-4.1 1.1-2.2.1-3.8-.2-3.6-.7.3-.4.2-1.4-.4-2.2-.7-1.2-.9-1.2-.9.3 0 1-.4 1.5-1 1.2-.6-.3-.7.1-.4.9.3.9 1 1.3 1.5 1 .5-.3 1.2.2 1.5 1 .4 1.1 1.4 1.4 3.3 1 3.2-.8 1.7 1-1.8 2.1-1.6.5-2.1.4-1.7-.4 1.2-1.8-1.6-1.2-3 .6-1.6 2.2-1.8 3.7-.3 2.7.6-.3 1.5 0 2 .7.7 1 1.1 1.1 1.7.2.5-.8 1.2-.8 2.6.3 1.9 1.3 1.9 1.4-.5 1.5-2.1.1-2 .2.6.8 5.2 1.3 9.4 6.1 5.2 6.1-.7 0-.6-.4.3-1 1.2-.8 1.1-1-.7-1-1.2 0-2.4-.6-2.7-1.3-.3-.6-.3-.2-.1.9.4 1.6 0 2.3-1.7 2.6-1.3.3-3.2.9-4.3 1.3-1.6.5-1.7.5-.5-.4 2.4-1.7-.5-1.3-4.4.6-3.6 1.8-5.3 5.9-1.9 4.6 1-.4 1.4-.2 1 .4-.4.6-.4 1.3 0 1.6.5.2.3.3-.2.2-.6-.2-1.6.8-2.2 2.1-1 2.1-.9 2.4 1.1 2.4 1.2 0 2.6-.4 3.2-.9 1.7-1.6 10.8-3 14.4-2.1 1.9.4 2.9.8 2.3.9-.7.1-1.3 1-1.3 2.1 0 1.4-.7 2-2.2 2.1-6 .2-16.5 2.7-17.4 4-.3.5-.9.7-1.4.4-.5-.3-1.1-.1-1.5.5-.3.5-.3 1 .2 1.1.4 0 2 .2 3.6.4 1.5.2 2.5 0 2.2-.6-.4-.5.8-.9 2.4-.9 1.7 0 3.1-.5 3.1-1 0-.6 1-1 2.3-1 1.3 0 2.8-.5 3.5-1.2.9-.9 1.5-.9 2.4 0 1.8 1.8 18.9 1.6 21.4-.3 1.7-1.3 1.1-1.4-6.5-1.5-4.6 0-8.2-.2-8-.5.3-.2 4.8-.7 10-.9 11.1-.5 11.1-.6 12.7-2.3 1-1.1.8-1.5-1.3-2.5-2.5-1.1-3.4-2.8-1.5-2.8.5 0 .6-.7.3-1.7-.4-.9-.2-1.4.3-1 .6.3 1.6.2 2.4-.3 1.9-1.2-2.6-2.3-6.3-1.6-1.6.3-2.5.1-2.2-.5.4-.5 2.1-.9 4-.9 2 0 3.5-.6 3.9-1.5.3-.8 0-1.5-.7-1.5-.8 0-.6-.4.3-1 1.3-.9 1.3-1 0-1.1-.8-.1-1.8-.1-2.2 0-.4 0-.5-.6-.2-1.4.4-.8 1-1.3 1.4-1 1.6 1 1.8-2.4.2-3.7-1.1-.9-1.4-.9-.8-.1.5.9-.1 1.2-2.1.9-1.5-.2-2.2-.1-1.5.1.6.2 1.2.9 1.2 1.4 0 .6-.5.7-1 .4-1.9-1.2-7.2.6-6.6 2.1.3.8-.1 1.4-1 1.4-.8 0-1.3-.4-.9-.9.5-1-2.8-2.5-5.4-2.6-2.2 0-2.5-2.5-.4-2.6 1.1 0 .6-.4-1.1-.9-1.6-.5-3.4-.6-3.9-.3-.6.3-.7.1-.4-.4.9-1.4 4.7-2.4 4.7-1.2s8.4.3 8.8-1c.2-.6 1.1-1.1 2-1.1 1.3 0 1.2-.2-.3-1.4-1.3-1-2.5-1.1-3.7-.5-.9.5-2.4.9-3.3.9-1.4 0-1.4-.2-.3-1.4.8-.8 2.3-1.6 3.4-1.9 1.3-.3.9-.5-1.1-.6-2.3-.1-2.7-.3-1.5-1.1 1.2-.8 1-1-.9-1-1.6 0-2.1-.4-1.7-1.5.4-1.1-.1-1.5-1.9-1.5-1.4 0-2.5.4-2.5 1zm4.7 5.6c-.3.3-1.2.4-1.9.1-.8-.3-.5-.6.6-.6 1.1-.1 1.7.2 1.3.5zM166 112c-4.1 2.8-5 3.1-5 1.6 0-1 .6-1.3 1.5-1 .8.4 1.5.1 1.5-.5s.8-1.1 1.8-1.1c1.5 0 1.5.2.2 1zm4 3c0 .5-.4 1-1 1-.5 0-1-.5-1-1 0-.6.5-1 1-1 .6 0 1 .4 1 1zm3 1c0 .5-.5 1-1.1 1-.5 0-.7-.5-.4-1 .3-.6.8-1 1.1-1 .2 0 .4.4.4 1zm7 3c0 .5-.5 1-1.1 1-.5 0-.7-.5-.4-1 .3-.6.8-1 1.1-1 .2 0 .4.4.4 1zm-15 7.4c0 .2-.7.6-1.5 1-.8.3-1.5.1-1.5-.4 0-.6.7-1 1.5-1s1.5.2 1.5.4zm13.7.2c-.3.3-1.2.4-1.9.1-.8-.3-.5-.6.6-.6 1.1-.1 1.7.2 1.3.5zM168 129c-1.2.8-1 1 1 1.1l2.5.1-2.5.8c-1.4.4-3.6.8-5 .8-2.4.1-2.4 0-.4-.8 1.2-.5 2.5-1.3 2.9-1.9.3-.6 1.2-1.1 1.8-1.1.7 0 .6.4-.3 1zm23.3 1.1c-.6 2.1-2.5 2.7-2 .7.1-.8-.8-1.2-2.5-1-1.6.2-2.8 0-2.8-.5s1.8-.9 3.9-1c3.4-.2 3.8.1 3.4 1.8zm-3.8 2.4c-2.4.8-11.6 1.2-10.3.4.7-.5 3.6-.8 6.3-.8 2.8 0 4.6.2 4 .4zM182.5 99c.3.5.8 1 1.1 1 .2 0 .4-.5.4-1 0-.6-.5-1-1.1-1-.5 0-.7.4-.4 1zM118.5 101.3c-1.4 1.1-1.5 1.6-.5 2.2 1.1.7 2.9-.9 3-2.8 0-1-.3-.9-2.5.6zM149 107.4c0 .2.7.6 1.5 1 .8.3 1.5.1 1.5-.4 0-.6-.7-1-1.5-1s-1.5.2-1.5.4z"/><path d="M151.8 111.7c.7.3 1.6.2 1.9-.1.4-.3-.2-.6-1.3-.5-1.1 0-1.4.3-.6.6zM146 113.7c0 .5 1.1.9 2.5.9 1.4.1 2.5-.2 2.5-.7 0-.5-1.1-.9-2.5-.9s-2.5.3-2.5.7zM157 119.4c0 .2 1.1.6 2.5.8 1.3.3 2.2.1 1.9-.3-.5-.9-4.4-1.3-4.4-.5zM150.6 122.5c-.3 1 .1 1.5 1.3 1.5 1 0 1.8-.7 1.8-1.5s-.6-1.5-1.3-1.5c-.6 0-1.4.7-1.8 1.5zM155.9 122.1c-1 .6-.4.9 1.9.9 1.7 0 3.2-.2 3.2-.4 0-.9-3.9-1.3-5.1-.5zM127.6 130.7c-.6 1.4-.5 1.5.5.6.7-.7 1-1.5.7-1.8-.3-.3-.9.2-1.2 1.2zM298.7 148.9c-.4 1.7-.3 2.1.5 1.3.5-.5.8-1.6.6-2.3-.3-.8-.7-.3-1.1 1zM296.5 152.9c-.3.5.2 1.7 1.1 2.5 1.9 2 2.4 2 2.4.1 0-.8-.7-1.5-1.6-1.5-.8 0-1.2-.5-.9-1 .3-.6.4-1 .1-1-.3 0-.7.4-1.1.9zM295 157c1.3.8 1.2 1-.3 1-1 0-1.5.4-1.2 1 .3.5-.2 1-1.2 1.1-1.6 0-1.6.1.2.8 1.5.6 2.2.3 2.7-1 .4-1.1 1.2-1.9 1.8-1.9 1.3 0 1.3 2.7 0 3.5-.8.5-.7 1.2.2 2.3 1.2 1.4 1 1.4-1.2.2-1.4-.7-2.2-.9-1.8-.5.4.4.2 1.7-.4 2.9-1 1.9-.9 2 .5.8 1.2-1 2.1-1.1 3.6-.2 1.9.9 2.1.8 1.9-1.5-.1-1.4-.8-2.5-1.5-2.5-1.1 0-1-.5.2-2.3 1.4-2.2 1.4-2.4-1-3.5-3.1-1.4-4.6-1.5-2.5-.2zM298.7 174.7c-.4.3-.7 1.1-.7 1.7 0 .6.5.5 1.2-.2.6-.6.9-1.4.7-1.7-.3-.3-.9-.2-1.2.2zM293 179.2c0 1.4-.5 1.8-1.6 1.4-1.8-.7-4.2 1.4-3.7 3.1.3.7 1.2.9 2 .6 1.3-.5 1.5-.2.9 1.3-.4 1-.8 2.3-.9 2.9-.1.5-1.2 1.8-2.5 2.8-2.1 1.8-2.2 2-.6 3.2.9.6 1.4 1.7 1 2.3-.4.7-.3 1.2.2 1.2s1.3-1 1.7-2.3c.6-1.9.8-1.9 1.2-.5.4 1.7 1.8 2.2 5.1 2.1.6-.1 1.2.4 1.2 1.1 0 .6.7 1.9 1.4 2.8 1.1 1.5 1.3-.1 1.5-10.7.2-11.4 0-12.5-1.6-12.6-1 0-2.6-.2-3.5-.4-1.2-.2-1.8.3-1.8 1.7zm0 3.8c0 .5-.7.7-1.5.4-.8-.4-1.5-.8-1.5-1 0-.2.7-.4 1.5-.4s1.5.4 1.5 1zm-3 9c0 .5-.2 1-.4 1-.3 0-.8-.5-1.1-1-.3-.6-.1-1 .4-1 .6 0 1.1.4 1.1 1zM262.2 227.5c0 1.6.2 2.2.5 1.2.2-.9.2-2.3 0-3-.3-.6-.5.1-.5 1.8z"/></svg>